<?xml version="1.0" encoding="UTF-8" standalone="no"?>
<!-- Created with Inkscape (http://www.inkscape.org/) -->

<svg
   width="320mm"
   height="510mm"
   viewBox="0 0 320 510"
   version="1.1"
   id="svg1"
   inkscape:version="1.4.2 (ebf0e940d0, 2025-05-08)"
   sodipodi:docname="angled_box_prepared.svg"
   xml:space="preserve"
   xmlns:inkscape="http://www.inkscape.org/namespaces/inkscape"
   xmlns:sodipodi="http://sodipodi.sourceforge.net/DTD/sodipodi-0.dtd"
   xmlns="http://www.w3.org/2000/svg"
   xmlns:svg="http://www.w3.org/2000/svg"><sodipodi:namedview
     id="namedview1"
     pagecolor="#ffffff"
     bordercolor="#999999"
     borderopacity="1"
     inkscape:showpageshadow="2"
     inkscape:pageopacity="0"
     inkscape:pagecheckerboard="0"
     inkscape:deskcolor="#d1d1d1"
     inkscape:document-units="mm"
     inkscape:zoom="1.3546747"
     inkscape:cx="411.53792"
     inkscape:cy="466.53267"
     inkscape:window-width="1920"
     inkscape:window-height="1200"
     inkscape:window-x="0"
     inkscape:window-y="0"
     inkscape:window-maximized="1"
     inkscape:current-layer="layer4"
     showguides="true"><inkscape:page
       x="0"
       y="0"
       width="320"
       height="510"
       id="page2"
       margin="0"
       bleed="0" /><inkscape:page
       x="337.45209"
       y="1.6572709"
       width="320"
       height="510"
       id="page3"
       margin="0"
       bleed="0" /><sodipodi:guide
       position="101.78751,413.21248"
       orientation="1,0"
       id="guide95"
       inkscape:locked="false" /></sodipodi:namedview><defs
     id="defs1" /><g
     inkscape:label="cut_box"
     inkscape:groupmode="layer"
     id="layer1"><g
       id="p-1"
       style="fill:none;stroke-linecap:round;stroke-linejoin:round"
       transform="translate(-8.3124999,11.445834)"><path
         d="M 65.808,288.9 H 77 c 0.1,0 0,-0.1 0,0 v 2.9 c 0,0.055 0.045,0.1 0.1,0.1 h 6 c 0.055,0 0.1,-0.045 0.1,-0.1 v -2.9 c 0,-0.1 -0.1,0 0,0 H 89 c 0.1,0 0,-0.1 0,0 v 2.9 c 0,0.055 0.045,0.1 0.1,0.1 h 6 c 0.055,0 0.1,-0.045 0.1,-0.1 v -2.9 c 0,-0.1 -0.1,0 0,0 h 5.8 c 0.1,0 0,-0.1 0,0 v 2.9 c 0,0.055 0.045,0.1 0.1,0.1 h 6 c 0.055,0 0.1,-0.045 0.1,-0.1 v -2.9 c 0,-0.1 -0.1,0 0,0 h 5.8 c 0.1,0 0,-0.1 0,0 v 2.9 c 0,0.055 0.045,0.1 0.1,0.1 h 6 c 0.055,0 0.1,-0.045 0.1,-0.1 v -2.9 c 0,-0.1 -0.1,0 0,0 h 5.8 c 0.1,0 0,-0.1 0,0 v 2.9 c 0,0.055 0.045,0.1 0.1,0.1 h 6 c 0.055,0 0.1,-0.045 0.1,-0.1 v -2.9 c 0,-0.1 -0.1,0 0,0 h 5.8 c 0.1,0 0,-0.1 0,0 v 2.9 c 0,0.055 0.045,0.1 0.1,0.1 h 6 c 0.055,0 0.1,-0.045 0.1,-0.1 v -2.9 c 0,-0.1 -0.1,0 0,0 h 11.192 c 0.018,0 0.035,-0.005 0.05,-0.013 l 8.827,-5.097 c 0.087,-0.05 -0.05,-0.086 0,0 l 1.45,2.512 c 0.028,0.048 0.089,0.064 0.137,0.037 l 5.196,-3 c 0.048,-0.028 0.064,-0.089 0.037,-0.137 l -1.45,-2.512 c -0.05,-0.086 -0.087,0.05 0,0 l 5.022,-2.9 c 0.087,-0.05 -0.05,-0.086 0,0 l 1.45,2.512 c 0.028,0.048 0.089,0.064 0.137,0.037 l 5.196,-3 c 0.048,-0.028 0.064,-0.089 0.037,-0.137 l -1.45,-2.512 c -0.05,-0.086 -0.087,0.05 0,0 l 8.827,-5.096 c 0.015,-0.009 0.027,-0.021 0.036,-0.036 l 5.096,-8.827 c 0.05,-0.087 -0.086,-0.05 0,0 l 2.512,1.45 c 0.048,0.027 0.109,0.011 0.137,-0.037 l 3,-5.196 c 0.027,-0.048 0.011,-0.109 -0.037,-0.137 l -2.512,-1.45 c -0.086,-0.05 -0.05,0.087 0,0 l 2.9,-5.022 c 0.05,-0.087 -0.086,-0.05 0,0 l 2.512,1.45 c 0.048,0.027 0.109,0.011 0.137,-0.037 l 3,-5.196 c 0.027,-0.048 0.011,-0.109 -0.037,-0.137 l -2.512,-1.45 c -0.086,-0.05 -0.05,0.087 0,0 l 5.097,-8.827 c 0.008,-0.015 0.013,-0.032 0.013,-0.05 V 225.9 c 0,-0.1 -0.1,0 0,0 h 2.9 c 0.055,0 0.1,-0.045 0.1,-0.1 v -6 c 0,-0.055 -0.045,-0.1 -0.1,-0.1 h -2.9 c -0.1,0 0,0.1 0,0 v -5.8 c 0,-0.1 -0.1,0 0,0 h 2.9 c 0.055,0 0.1,-0.045 0.1,-0.1 v -6 c 0,-0.055 -0.045,-0.1 -0.1,-0.1 h -2.9 c -0.1,0 0,0.1 0,0 v -10.192 c 0,-0.018 -0.005,-0.035 -0.013,-0.05 l -5.097,-8.827 c -0.05,-0.087 -0.086,0.05 0,0 l 2.512,-1.45 c 0.048,-0.028 0.064,-0.089 0.037,-0.137 l -3,-5.196 c -0.028,-0.048 -0.089,-0.064 -0.137,-0.037 l -2.512,1.45 c -0.086,0.05 0.05,0.087 0,0 l -2.9,-5.022 c -0.05,-0.087 -0.086,0.05 0,0 l 2.512,-1.45 c 0.048,-0.028 0.064,-0.089 0.037,-0.137 l -3,-5.196 c -0.028,-0.048 -0.089,-0.064 -0.137,-0.037 l -2.512,1.45 c -0.086,0.05 0.05,0.087 0,0 l -5.096,-8.827 c -0.009,-0.015 -0.021,-0.027 -0.036,-0.036 l -8.827,-5.096 c -0.087,-0.05 -0.05,0.086 0,0 l 1.45,-2.512 c 0.027,-0.048 0.011,-0.109 -0.037,-0.137 l -5.196,-3 c -0.048,-0.027 -0.109,-0.011 -0.137,0.037 l -1.45,2.512 c -0.05,0.086 0.087,0.05 0,0 l -5.022,-2.9 c -0.087,-0.05 -0.05,0.086 0,0 l 1.45,-2.512 c 0.027,-0.048 0.011,-0.109 -0.037,-0.137 l -5.196,-3 c -0.048,-0.027 -0.109,-0.011 -0.137,0.037 l -1.45,2.512 c -0.05,0.086 0.087,0.05 0,0 l -8.827,-5.097 c -0.015,-0.008 -0.032,-0.013 -0.05,-0.013 H 143.2 c -0.1,0 0,0.1 0,0 v -2.9 c 0,-0.055 -0.045,-0.1 -0.1,-0.1 h -6 c -0.055,0 -0.1,0.045 -0.1,0.1 v 2.9 c 0,0.1 0.1,0 0,0 h -5.8 c -0.1,0 0,0.1 0,0 v -2.9 c 0,-0.055 -0.045,-0.1 -0.1,-0.1 h -6 c -0.055,0 -0.1,0.045 -0.1,0.1 v 2.9 c 0,0.1 0.1,0 0,0 h -5.8 c -0.1,0 0,0.1 0,0 v -2.9 c 0,-0.055 -0.045,-0.1 -0.1,-0.1 h -6 c -0.055,0 -0.1,0.045 -0.1,0.1 v 2.9 c 0,0.1 0.1,0 0,0 h -5.8 c -0.1,0 0,0.1 0,0 v -2.9 c 0,-0.055 -0.045,-0.1 -0.1,-0.1 h -6 c -0.055,0 -0.1,0.045 -0.1,0.1 v 2.9 c 0,0.1 0.1,0 0,0 h -5.8 c -0.1,0 0,0.1 0,0 v -2.9 c 0,-0.055 -0.045,-0.1 -0.1,-0.1 h -6 c -0.055,0 -0.1,0.045 -0.1,0.1 v 2.9 c 0,0.1 0.1,0 0,0 h -5.8 c -0.1,0 0,0.1 0,0 v -2.9 c 0,-0.055 -0.045,-0.1 -0.1,-0.1 h -6 c -0.055,0 -0.1,0.045 -0.1,0.1 v 2.9 c 0,0.1 0.1,0 0,0 H 65.808 c -0.018,0 -0.035,0.005 -0.05,0.013 l -8.827,5.097 c -0.087,0.05 0.05,0.086 0,0 l -1.45,-2.512 c -0.028,-0.048 -0.089,-0.064 -0.137,-0.037 l -5.196,3 c -0.048,0.028 -0.064,0.089 -0.037,0.137 l 1.45,2.512 c 0.05,0.086 0.087,-0.05 0,0 l -5.022,2.9 c -0.087,0.05 0.05,0.086 0,0 l -1.45,-2.512 C 45.061,153.25 45,153.234 44.952,153.261 l -5.196,3 c -0.048,0.028 -0.064,0.089 -0.037,0.137 l 1.45,2.512 c 0.05,0.086 0.087,-0.05 0,0 l -8.827,5.096 c -0.015,0.009 -0.027,0.021 -0.036,0.036 l -5.096,8.827 c -0.05,0.087 0.086,0.05 0,0 l -2.512,-1.45 c -0.048,-0.027 -0.109,-0.011 -0.137,0.037 l -3,5.196 c -0.027,0.048 -0.011,0.109 0.037,0.137 l 2.512,1.45 c 0.086,0.05 0.05,-0.087 0,0 l -2.9,5.022 c -0.05,0.087 0.086,0.05 0,0 l -2.512,-1.45 c -0.048,-0.027 -0.109,-0.011 -0.137,0.037 l -3,5.196 c -0.027,0.048 -0.011,0.109 0.037,0.137 l 2.512,1.45 c 0.086,0.05 0.05,-0.087 0,0 l -5.097,8.827 C 13.005,197.473 13,197.49 13,197.508 V 207.7 c 0,0.1 0.1,0 0,0 h -2.9 c -0.055,0 -0.1,0.045 -0.1,0.1 v 6 c 0,0.055 0.045,0.1 0.1,0.1 H 13 c 0.1,0 0,-0.1 0,0 v 5.8 c 0,0.1 0.1,0 0,0 h -2.9 c -0.055,0 -0.1,0.045 -0.1,0.1 v 6 c 0,0.055 0.045,0.1 0.1,0.1 H 13 c 0.1,0 0,-0.1 0,0 v 10.192 c 0,0.018 0.005,0.035 0.013,0.05 l 5.097,8.827 c 0.05,0.087 0.086,-0.05 0,0 l -2.512,1.45 c -0.048,0.028 -0.064,0.089 -0.037,0.137 l 3,5.196 c 0.028,0.048 0.089,0.064 0.137,0.037 l 2.512,-1.45 c 0.086,-0.05 -0.05,-0.087 0,0 l 2.9,5.022 c 0.05,0.087 0.086,-0.05 0,0 l -2.512,1.45 c -0.048,0.028 -0.064,0.089 -0.037,0.137 l 3,5.196 c 0.028,0.048 0.089,0.064 0.137,0.037 l 2.512,-1.45 c 0.086,-0.05 -0.05,-0.087 0,0 l 5.096,8.827 c 0.009,0.015 0.021,0.027 0.036,0.036 l 8.827,5.096 c 0.087,0.05 0.05,-0.086 0,0 l -1.45,2.512 c -0.027,0.048 -0.011,0.109 0.037,0.137 l 5.196,3 c 0.048,0.027 0.109,0.011 0.137,-0.037 l 1.45,-2.512 c 0.05,-0.086 -0.087,-0.05 0,0 l 5.022,2.9 c 0.087,0.05 0.05,-0.086 0,0 l -1.45,2.512 c -0.027,0.048 -0.011,0.109 0.037,0.137 l 5.196,3 c 0.048,0.027 0.109,0.011 0.137,-0.037 l 1.45,-2.512 c 0.05,-0.086 -0.087,-0.05 0,0 l 8.827,5.097 c 0.015,0.008 0.032,0.013 0.05,0.013"
         stroke="#000000"
         stroke-width="0.2"
         id="path2" /></g><g
       id="p-2"
       style="fill:none;stroke-linecap:round;stroke-linejoin:round"
       transform="translate(-210.01249,162.58332)"><path
         d="m 268.312,285.9 h 86.976 c 0.018,0 0.035,-0.005 0.05,-0.013 l 32.024,-18.489 c 0.015,-0.009 0.027,-0.021 0.036,-0.036 l 18.489,-32.024 c 0.008,-0.015 0.013,-0.032 0.013,-0.05 v -36.976 c 0,-0.018 -0.005,-0.035 -0.013,-0.05 l -18.489,-32.024 c -0.009,-0.015 -0.021,-0.027 -0.036,-0.036 l -32.024,-18.489 c -0.015,-0.008 -0.032,-0.013 -0.05,-0.013 h -86.976 c -0.018,0 -0.035,0.005 -0.05,0.013 l -32.024,18.489 c -0.015,0.009 -0.027,0.021 -0.036,0.036 l -18.489,32.024 c -0.008,0.015 -0.013,0.032 -0.013,0.05 v 36.976 c 0,0.018 0.005,0.035 0.013,0.05 l 18.489,32.024 c 0.009,0.015 0.021,0.027 0.036,0.036 l 32.024,18.489 c 0.015,0.008 0.032,0.013 0.05,0.013 z m -0.804,6 H 278.8 c 0.055,0 0.1,-0.045 0.1,-0.1 v -2.9 c 0,-0.1 -0.1,0 0,0 h 5.8 c 0.1,0 0,-0.1 0,0 v 2.9 c 0,0.055 0.045,0.1 0.1,0.1 h 6 c 0.055,0 0.1,-0.045 0.1,-0.1 v -2.9 c 0,-0.1 -0.1,0 0,0 h 5.8 c 0.1,0 0,-0.1 0,0 v 2.9 c 0,0.055 0.045,0.1 0.1,0.1 h 6 c 0.055,0 0.1,-0.045 0.1,-0.1 v -2.9 c 0,-0.1 -0.1,0 0,0 h 5.8 c 0.1,0 0,-0.1 0,0 v 2.9 c 0,0.055 0.045,0.1 0.1,0.1 h 6 c 0.055,0 0.1,-0.045 0.1,-0.1 v -2.9 c 0,-0.1 -0.1,0 0,0 h 5.8 c 0.1,0 0,-0.1 0,0 v 2.9 c 0,0.055 0.045,0.1 0.1,0.1 h 6 c 0.055,0 0.1,-0.045 0.1,-0.1 v -2.9 c 0,-0.1 -0.1,0 0,0 h 5.8 c 0.1,0 0,-0.1 0,0 v 2.9 c 0,0.055 0.045,0.1 0.1,0.1 h 6 c 0.055,0 0.1,-0.045 0.1,-0.1 v -2.9 c 0,-0.1 -0.1,0 0,0 h 5.8 c 0.1,0 0,-0.1 0,0 v 2.9 c 0,0.055 0.045,0.1 0.1,0.1 h 11.292 0.804 c 0.018,0 0.035,-0.005 0.05,-0.013 l 0.696,-0.402 8.914,-5.146 c 0.048,-0.028 0.064,-0.089 0.036,-0.137 l -1.45,-2.512 c -0.05,-0.086 -0.086,0.05 0,0 l 5.023,-2.9 c 0.087,-0.05 -0.05,-0.086 0,0 l 1.45,2.512 c 0.028,0.048 0.089,0.064 0.137,0.037 l 5.196,-3 c 0.048,-0.028 0.064,-0.089 0.037,-0.137 l -1.45,-2.512 c -0.05,-0.086 -0.087,0.05 0,0 l 5.023,-2.9 c 0.086,-0.05 -0.05,-0.086 0,0 l 1.45,2.512 c 0.027,0.048 0.088,0.064 0.136,0.037 l 8.914,-5.147 0.696,-0.402 c 0.015,-0.008 0.028,-0.021 0.036,-0.036 l 0.402,-0.696 5.147,-8.914 c 0.027,-0.048 0.011,-0.109 -0.037,-0.136 l -2.512,-1.45 c -0.086,-0.05 -0.05,0.086 0,0 l 2.9,-5.023 c 0.05,-0.087 -0.086,-0.05 0,0 l 2.512,1.45 c 0.048,0.027 0.109,0.011 0.137,-0.037 l 3,-5.196 c 0.027,-0.048 0.011,-0.109 -0.037,-0.137 l -2.512,-1.45 c -0.086,-0.05 -0.05,0.087 0,0 l 2.9,-5.023 c 0.05,-0.086 -0.086,-0.05 0,0 l 2.512,1.45 c 0.048,0.028 0.109,0.012 0.137,-0.036 l 5.146,-8.914 0.402,-0.696 c 0.008,-0.015 0.013,-0.032 0.013,-0.05 V 236.092 225.8 c 0,-0.055 -0.045,-0.1 -0.1,-0.1 h -2.9 c -0.1,0 0,0.1 0,0 v -5.8 c 0,-0.1 -0.1,0 0,0 h 2.9 c 0.055,0 0.1,-0.045 0.1,-0.1 v -6 c 0,-0.055 -0.045,-0.1 -0.1,-0.1 h -2.9 c -0.1,0 0,0.1 0,0 v -5.8 c 0,-0.1 -0.1,0 0,0 h 2.9 c 0.055,0 0.1,-0.045 0.1,-0.1 v -10.292 -0.804 c 0,-0.018 -0.005,-0.035 -0.013,-0.05 l -0.402,-0.696 -5.146,-8.914 c -0.028,-0.048 -0.089,-0.064 -0.137,-0.036 l -2.512,1.45 c -0.086,0.05 0.05,0.086 0,0 l -2.9,-5.023 c -0.05,-0.087 -0.086,0.05 0,0 l 2.512,-1.45 c 0.048,-0.028 0.064,-0.089 0.037,-0.137 l -3,-5.196 c -0.028,-0.048 -0.089,-0.064 -0.137,-0.037 l -2.512,1.45 c -0.086,0.05 0.05,0.087 0,0 l -2.9,-5.023 c -0.05,-0.086 -0.086,0.05 0,0 l 2.512,-1.45 c 0.048,-0.027 0.064,-0.088 0.037,-0.136 l -5.147,-8.914 -0.402,-0.696 c -0.008,-0.015 -0.021,-0.028 -0.036,-0.036 l -0.696,-0.402 -8.914,-5.147 c -0.048,-0.027 -0.109,-0.011 -0.136,0.037 l -1.45,2.512 c -0.05,0.086 0.086,0.05 0,0 l -5.023,-2.9 c -0.087,-0.05 -0.05,0.086 0,0 l 1.45,-2.512 c 0.027,-0.048 0.011,-0.109 -0.037,-0.137 l -5.196,-3 c -0.048,-0.027 -0.109,-0.011 -0.137,0.037 l -1.45,2.512 c -0.05,0.086 0.087,0.05 0,0 l -5.023,-2.9 c -0.086,-0.05 -0.05,0.086 0,0 l 1.45,-2.512 c 0.028,-0.048 0.012,-0.109 -0.036,-0.137 l -8.914,-5.146 -0.696,-0.402 c -0.015,-0.008 -0.032,-0.013 -0.05,-0.013 H 356.092 344.8 c -0.055,0 -0.1,0.045 -0.1,0.1 v 2.9 c 0,0.1 0.1,0 0,0 h -5.8 c -0.1,0 0,0.1 0,0 v -2.9 c 0,-0.055 -0.045,-0.1 -0.1,-0.1 h -6 c -0.055,0 -0.1,0.045 -0.1,0.1 v 2.9 c 0,0.1 0.1,0 0,0 h -5.8 c -0.1,0 0,0.1 0,0 v -2.9 c 0,-0.055 -0.045,-0.1 -0.1,-0.1 h -6 c -0.055,0 -0.1,0.045 -0.1,0.1 v 2.9 c 0,0.1 0.1,0 0,0 h -5.8 c -0.1,0 0,0.1 0,0 v -2.9 c 0,-0.055 -0.045,-0.1 -0.1,-0.1 h -6 c -0.055,0 -0.1,0.045 -0.1,0.1 v 2.9 c 0,0.1 0.1,0 0,0 h -5.8 c -0.1,0 0,0.1 0,0 v -2.9 c 0,-0.055 -0.045,-0.1 -0.1,-0.1 h -6 c -0.055,0 -0.1,0.045 -0.1,0.1 v 2.9 c 0,0.1 0.1,0 0,0 h -5.8 c -0.1,0 0,0.1 0,0 v -2.9 c 0,-0.055 -0.045,-0.1 -0.1,-0.1 h -6 c -0.055,0 -0.1,0.045 -0.1,0.1 v 2.9 c 0,0.1 0.1,0 0,0 h -5.8 c -0.1,0 0,0.1 0,0 v -2.9 c 0,-0.055 -0.045,-0.1 -0.1,-0.1 h -11.292 -0.804 c -0.018,0 -0.035,0.005 -0.05,0.013 l -0.696,0.402 -8.914,5.146 c -0.048,0.028 -0.064,0.089 -0.036,0.137 l 1.45,2.512 c 0.05,0.086 0.086,-0.05 0,0 l -5.023,2.9 c -0.087,0.05 0.05,0.086 0,0 l -1.45,-2.512 c -0.028,-0.048 -0.089,-0.064 -0.137,-0.037 l -5.196,3 c -0.048,0.028 -0.064,0.089 -0.037,0.137 l 1.45,2.512 c 0.05,0.086 0.087,-0.05 0,0 l -5.023,2.9 c -0.086,0.05 0.05,0.086 0,0 l -1.45,-2.512 c -0.027,-0.048 -0.088,-0.064 -0.136,-0.037 l -8.914,5.147 -0.696,0.402 c -0.015,0.008 -0.028,0.021 -0.036,0.036 l -0.402,0.696 -5.147,8.914 c -0.027,0.048 -0.011,0.109 0.037,0.136 l 2.512,1.45 c 0.086,0.05 0.05,-0.086 0,0 l -2.9,5.023 c -0.05,0.087 0.086,0.05 0,0 l -2.512,-1.45 c -0.048,-0.027 -0.109,-0.011 -0.137,0.037 l -3,5.196 c -0.027,0.048 -0.011,0.109 0.037,0.137 l 2.512,1.45 c 0.086,0.05 0.05,-0.087 0,0 l -2.9,5.023 c -0.05,0.086 0.086,0.05 0,0 l -2.512,-1.45 c -0.048,-0.028 -0.109,-0.012 -0.137,0.036 l -5.146,8.914 -0.402,0.696 c -0.008,0.015 -0.013,0.032 -0.013,0.05 v 0.804 10.292 c 0,0.055 0.045,0.1 0.1,0.1 h 2.9 c 0.1,0 0,-0.1 0,0 v 5.8 c 0,0.1 0.1,0 0,0 h -2.9 c -0.055,0 -0.1,0.045 -0.1,0.1 v 6 c 0,0.055 0.045,0.1 0.1,0.1 h 2.9 c 0.1,0 0,-0.1 0,0 v 5.8 c 0,0.1 0.1,0 0,0 h -2.9 c -0.055,0 -0.1,0.045 -0.1,0.1 v 10.292 0.804 c 0,0.018 0.005,0.035 0.013,0.05 l 0.402,0.696 5.146,8.914 c 0.028,0.048 0.089,0.064 0.137,0.036 l 2.512,-1.45 c 0.086,-0.05 -0.05,-0.086 0,0 l 2.9,5.023 c 0.05,0.087 0.086,-0.05 0,0 l -2.512,1.45 c -0.048,0.028 -0.064,0.089 -0.037,0.137 l 3,5.196 c 0.028,0.048 0.089,0.064 0.137,0.037 l 2.512,-1.45 c 0.086,-0.05 -0.05,-0.087 0,0 l 2.9,5.023 c 0.05,0.086 0.086,-0.05 0,0 l -2.512,1.45 c -0.048,0.027 -0.064,0.088 -0.037,0.136 l 5.147,8.914 0.402,0.696 c 0.008,0.015 0.021,0.028 0.036,0.036 l 0.696,0.402 8.914,5.147 c 0.048,0.027 0.109,0.011 0.136,-0.037 l 1.45,-2.512 c 0.05,-0.086 -0.086,-0.05 0,0 l 5.023,2.9 c 0.087,0.05 0.05,-0.086 0,0 l -1.45,2.512 c -0.027,0.048 -0.011,0.109 0.037,0.137 l 5.196,3 c 0.048,0.027 0.109,0.011 0.137,-0.037 l 1.45,-2.512 c 0.05,-0.086 -0.087,-0.05 0,0 l 5.023,2.9 c 0.086,0.05 0.05,-0.086 0,0 l -1.45,2.512 c -0.028,0.048 -0.012,0.109 0.036,0.137 l 8.914,5.146 0.696,0.402 c 0.015,0.008 0.032,0.013 0.05,0.013 h 0.804"
         stroke="#000000"
         stroke-width="0.2"
         id="path3" /></g><g
       id="p-3"
       style="fill:none;stroke-linecap:round;stroke-linejoin:round"
       transform="translate(-411.71249,-140.01249)"><path
         d="m 469.208,291.9 h 88.584 0.804 c 0.018,0 0.035,-0.005 0.05,-0.013 l 0.696,-0.402 33.416,-19.293 0.696,-0.402 c 0.015,-0.008 0.028,-0.021 0.036,-0.036 l 0.402,-0.696 19.293,-33.416 0.402,-0.696 c 0.008,-0.015 0.013,-0.032 0.013,-0.05 v -0.804 -38.584 -0.804 c 0,-0.018 -0.005,-0.035 -0.013,-0.05 l -0.402,-0.696 -19.293,-33.416 -0.402,-0.696 c -0.008,-0.015 -0.021,-0.028 -0.036,-0.036 l -0.696,-0.402 -33.416,-19.293 -0.696,-0.402 c -0.015,-0.008 -0.032,-0.013 -0.05,-0.013 h -0.804 -88.584 -0.804 c -0.018,0 -0.035,0.005 -0.05,0.013 l -0.696,0.402 -33.416,19.293 -0.696,0.402 c -0.015,0.008 -0.028,0.021 -0.036,0.036 l -0.402,0.696 -19.293,33.416 -0.402,0.696 c -0.008,0.015 -0.013,0.032 -0.013,0.05 v 0.804 38.584 0.804 c 0,0.018 0.005,0.035 0.013,0.05 l 0.402,0.696 19.293,33.416 0.402,0.696 c 0.008,0.015 0.021,0.028 0.036,0.036 l 0.696,0.402 33.416,19.293 0.696,0.402 c 0.015,0.008 0.032,0.013 0.05,0.013 h 0.804"
         stroke="#000000"
         stroke-width="0.2"
         id="path4" /></g><g
       id="p-4"
       style="fill:none;stroke-linecap:round;stroke-linejoin:round"
       transform="rotate(90,-72.699916,249.58742)"><path
         d="m 25.196,137 h -2.9 c -0.1,0 0,0.1 0,0 v -2.8 c 0,-0.1 -0.1,0 0,0 h 5.8 c 0.1,0 0,-0.1 0,0 v 2.8 c 0,0.1 0.1,0 0,0 z"
         stroke="#0000ff"
         stroke-width="0.2"
         id="path5" /><path
         d="m 37.196,137 h -2.9 c -0.1,0 0,0.1 0,0 v -2.8 c 0,-0.1 -0.1,0 0,0 h 5.8 c 0.1,0 0,-0.1 0,0 v 2.8 c 0,0.1 0.1,0 0,0 z"
         stroke="#0000ff"
         stroke-width="0.2"
         id="path6" /><path
         d="m 49.196,137 h -2.9 c -0.1,0 0,0.1 0,0 v -2.8 c 0,-0.1 -0.1,0 0,0 h 5.8 c 0.1,0 0,-0.1 0,0 v 2.8 c 0,0.1 0.1,0 0,0 z"
         stroke="#0000ff"
         stroke-width="0.2"
         id="path7" /><path
         d="m 61.196,137 h -2.9 c -0.1,0 0,0.1 0,0 v -2.8 c 0,-0.1 -0.1,0 0,0 h 5.8 c 0.1,0 0,-0.1 0,0 v 2.8 c 0,0.1 0.1,0 0,0 z"
         stroke="#0000ff"
         stroke-width="0.2"
         id="path8" /><path
         d="m 73.196,137 h -2.9 c -0.1,0 0,0.1 0,0 v -2.8 c 0,-0.1 -0.1,0 0,0 h 5.8 c 0.1,0 0,-0.1 0,0 v 2.8 c 0,0.1 0.1,0 0,0 z"
         stroke="#0000ff"
         stroke-width="0.2"
         id="path9" /><path
         d="m 85.196,137 h -2.9 c -0.1,0 0,0.1 0,0 v -2.8 c 0,-0.1 -0.1,0 0,0 h 5.8 c 0.1,0 0,-0.1 0,0 v 2.8 c 0,0.1 0.1,0 0,0 z"
         stroke="#0000ff"
         stroke-width="0.2"
         id="path10" /><path
         d="m 10.904,140.2 h 88.585 0.803 c 0.056,0 0.1,-0.045 0.1,-0.1 v -6 -9.5 c 0,-0.055 -0.044,-0.1 -0.1,-0.1 h -1.4 c -0.1,0 0,0.1 0,0 v -5.8 c 0,-0.1 -0.1,0 0,0 h 1.4 c 0.056,0 0.1,-0.045 0.1,-0.1 v -6 c 0,-0.055 -0.044,-0.1 -0.1,-0.1 h -1.4 c -0.1,0 0,0.1 0,0 v -5.8 c 0,-0.1 -0.1,0 0,0 h 1.4 c 0.056,0 0.1,-0.045 0.1,-0.1 v -6 c 0,-0.055 -0.044,-0.1 -0.1,-0.1 h -1.4 c -0.1,0 0,0.1 0,0 v -5.8 c 0,-0.1 -0.1,0 0,0 h 1.4 c 0.056,0 0.1,-0.045 0.1,-0.1 v -6 c 0,-0.055 -0.044,-0.1 -0.1,-0.1 h -1.4 c -0.1,0 0,0.1 0,0 v -5.8 c 0,-0.1 -0.1,0 0,0 h 1.4 c 0.056,0 0.1,-0.045 0.1,-0.1 v -6 c 0,-0.055 -0.044,-0.1 -0.1,-0.1 h -1.4 c -0.1,0 0,0.1 0,0 v -5.8 c 0,-0.1 -0.1,0 0,0 h 1.4 c 0.056,0 0.1,-0.045 0.1,-0.1 v -6 c 0,-0.055 -0.044,-0.1 -0.1,-0.1 h -1.4 c -0.1,0 0,0.1 0,0 v -5.8 c 0,-0.1 -0.1,0 0,0 h 1.4 c 0.056,0 0.1,-0.045 0.1,-0.1 v -6 c 0,-0.055 -0.044,-0.1 -0.1,-0.1 h -1.4 c -0.1,0 0,0.1 0,0 v -5.8 c 0,-0.1 -0.1,0 0,0 h 1.4 c 0.056,0 0.1,-0.045 0.1,-0.1 v -6 c 0,-0.055 -0.044,-0.1 -0.1,-0.1 h -1.4 c -0.1,0 0,0.1 0,0 v -5.8 c 0,-0.1 -0.1,0 0,0 h 1.4 c 0.056,0 0.1,-0.045 0.1,-0.1 v -6 c 0,-0.055 -0.044,-0.1 -0.1,-0.1 h -1.4 c -0.1,0 0,0.1 0,0 v -5.8 c 0,-0.1 -0.1,0 0,0 h 1.4 c 0.056,0 0.1,-0.045 0.1,-0.1 v -9.5 c 0,-0.055 -0.044,-0.1 -0.1,-0.1 H 99.489 88.296 c -0.1,0 0,0.1 0,0 v -2.9 c 0,-0.055 -0.045,-0.1 -0.1,-0.1 h -6 c -0.055,0 -0.1,0.045 -0.1,0.1 V 13 c 0,0.1 0.1,0 0,0 h -5.8 c -0.1,0 0,0.1 0,0 v -2.9 c 0,-0.055 -0.045,-0.1 -0.1,-0.1 h -6 c -0.055,0 -0.1,0.045 -0.1,0.1 V 13 c 0,0.1 0.1,0 0,0 h -5.8 c -0.1,0 0,0.1 0,0 v -2.9 c 0,-0.055 -0.045,-0.1 -0.1,-0.1 h -6 c -0.055,0 -0.1,0.045 -0.1,0.1 V 13 c 0,0.1 0.1,0 0,0 h -5.8 c -0.1,0 0,0.1 0,0 v -2.9 c 0,-0.055 -0.045,-0.1 -0.1,-0.1 h -6 c -0.055,0 -0.1,0.045 -0.1,0.1 V 13 c 0,0.1 0.1,0 0,0 h -5.8 c -0.1,0 0,0.1 0,0 v -2.9 c 0,-0.055 -0.045,-0.1 -0.1,-0.1 h -6 c -0.055,0 -0.1,0.045 -0.1,0.1 V 13 c 0,0.1 0.1,0 0,0 h -5.8 c -0.1,0 0,0.1 0,0 v -2.9 c 0,-0.055 -0.045,-0.1 -0.1,-0.1 h -6 c -0.055,0 -0.1,0.045 -0.1,0.1 V 13 c 0,0.1 0.1,0 0,0 H 10.904 10.1 C 10.045,13 10,13.045 10,13.1 v 9.5 c 0,0.055 0.045,0.1 0.1,0.1 h 1.4 c 0.1,0 0,-0.1 0,0 v 5.8 c 0,0.1 0.1,0 0,0 h -1.4 c -0.055,0 -0.1,0.045 -0.1,0.1 v 6 c 0,0.055 0.045,0.1 0.1,0.1 h 1.4 c 0.1,0 0,-0.1 0,0 v 5.8 c 0,0.1 0.1,0 0,0 h -1.4 c -0.055,0 -0.1,0.045 -0.1,0.1 v 6 c 0,0.055 0.045,0.1 0.1,0.1 h 1.4 c 0.1,0 0,-0.1 0,0 v 5.8 c 0,0.1 0.1,0 0,0 h -1.4 c -0.055,0 -0.1,0.045 -0.1,0.1 v 6 c 0,0.055 0.045,0.1 0.1,0.1 h 1.4 c 0.1,0 0,-0.1 0,0 v 5.8 c 0,0.1 0.1,0 0,0 h -1.4 c -0.055,0 -0.1,0.045 -0.1,0.1 v 6 c 0,0.055 0.045,0.1 0.1,0.1 h 1.4 c 0.1,0 0,-0.1 0,0 v 5.8 c 0,0.1 0.1,0 0,0 h -1.4 c -0.055,0 -0.1,0.045 -0.1,0.1 v 6 c 0,0.055 0.045,0.1 0.1,0.1 h 1.4 c 0.1,0 0,-0.1 0,0 v 5.8 c 0,0.1 0.1,0 0,0 h -1.4 c -0.055,0 -0.1,0.045 -0.1,0.1 v 6 c 0,0.055 0.045,0.1 0.1,0.1 h 1.4 c 0.1,0 0,-0.1 0,0 v 5.8 c 0,0.1 0.1,0 0,0 h -1.4 c -0.055,0 -0.1,0.045 -0.1,0.1 v 6 c 0,0.055 0.045,0.1 0.1,0.1 h 1.4 c 0.1,0 0,-0.1 0,0 v 5.8 c 0,0.1 0.1,0 0,0 h -1.4 c -0.055,0 -0.1,0.045 -0.1,0.1 v 6 c 0,0.055 0.045,0.1 0.1,0.1 h 1.4 c 0.1,0 0,-0.1 0,0 v 5.8 c 0,0.1 0.1,0 0,0 h -1.4 c -0.055,0 -0.1,0.045 -0.1,0.1 v 9.5 6 c 0,0.055 0.045,0.1 0.1,0.1 h 0.804"
         stroke="#000000"
         stroke-width="0.2"
         id="path11" /></g><g
       id="p-5"
       style="fill:none;stroke-linecap:round;stroke-linejoin:round"
       transform="translate(101.78301,-8.3124999)"><path
         d="m 116.089,137 h -2.9 c -0.1,0 0,0.1 0,0 v -2.8 c 0,-0.1 -0.1,0 0,0 h 5.8 c 0.1,0 0,-0.1 0,0 v 2.8 c 0,0.1 0.1,0 0,0 z"
         stroke="#0000ff"
         stroke-width="0.2"
         id="path12" /><path
         d="m 128.089,137 h -2.9 c -0.1,0 0,0.1 0,0 v -2.8 c 0,-0.1 -0.1,0 0,0 h 5.8 c 0.1,0 0,-0.1 0,0 v 2.8 c 0,0.1 0.1,0 0,0 z"
         stroke="#0000ff"
         stroke-width="0.2"
         id="path13" /><path
         d="m 102.796,140.2 h 38.585 -0.696 c 0.055,0 0.1,-0.045 0.1,-0.1 v -6 -9.4 c 0,-0.1 -0.1,0 0,0 h 1.4 c 0.055,0 0.1,-0.045 0.1,-0.1 v -6 c 0,-0.055 -0.045,-0.1 -0.1,-0.1 h -1.4 c -0.1,0 0,0.1 0,0 v -5.8 c 0,-0.1 -0.1,0 0,0 h 1.4 c 0.055,0 0.1,-0.045 0.1,-0.1 v -6 c 0,-0.055 -0.045,-0.1 -0.1,-0.1 h -1.4 c -0.1,0 0,0.1 0,0 v -5.8 c 0,-0.1 -0.1,0 0,0 h 1.4 c 0.055,0 0.1,-0.045 0.1,-0.1 v -6 c 0,-0.055 -0.045,-0.1 -0.1,-0.1 h -1.4 c -0.1,0 0,0.1 0,0 v -5.8 c 0,-0.1 -0.1,0 0,0 h 1.4 c 0.055,0 0.1,-0.045 0.1,-0.1 v -6 c 0,-0.055 -0.045,-0.1 -0.1,-0.1 h -1.4 c -0.1,0 0,0.1 0,0 v -5.8 c 0,-0.1 -0.1,0 0,0 h 1.4 c 0.055,0 0.1,-0.045 0.1,-0.1 v -6 c 0,-0.055 -0.045,-0.1 -0.1,-0.1 h -1.4 c -0.1,0 0,0.1 0,0 v -5.8 c 0,-0.1 -0.1,0 0,0 h 1.4 c 0.055,0 0.1,-0.045 0.1,-0.1 v -6 c 0,-0.055 -0.045,-0.1 -0.1,-0.1 h -1.4 c -0.1,0 0,0.1 0,0 v -5.8 c 0,-0.1 -0.1,0 0,0 h 1.4 c 0.055,0 0.1,-0.045 0.1,-0.1 v -6 c 0,-0.055 -0.045,-0.1 -0.1,-0.1 h -1.4 c -0.1,0 0,0.1 0,0 v -5.8 c 0,-0.1 -0.1,0 0,0 h 1.4 c 0.055,0 0.1,-0.045 0.1,-0.1 v -6 c 0,-0.055 -0.045,-0.1 -0.1,-0.1 h -1.4 c -0.1,0 0,0.1 0,0 v -5.8 c 0,-0.1 -0.1,0 0,0 h 1.4 c 0.055,0 0.1,-0.045 0.1,-0.1 v -6 c 0,-0.055 -0.045,-0.1 -0.1,-0.1 h -1.4 c -0.1,0 0,0.1 0,0 v -9.4 c 0,-0.055 -0.045,-0.1 -0.1,-0.1 h 0.696 -10.192 c -0.1,0 0,0.1 0,0 v -2.9 c 0,-0.055 -0.045,-0.1 -0.1,-0.1 h -6 c -0.056,0 -0.1,0.045 -0.1,0.1 V 13 c 0,0.1 0.1,0 0,0 h -5.8 c -0.1,0 0,0.1 0,0 v -2.9 c 0,-0.055 -0.045,-0.1 -0.1,-0.1 h -6 c -0.056,0 -0.1,0.045 -0.1,0.1 V 13 c 0,0.1 0.1,0 0,0 h -10.193 0.696 c -0.055,0 -0.1,0.045 -0.1,0.1 v 9.4 c 0,0.1 0.1,0 0,0 h -1.4 c -0.055,0 -0.1,0.045 -0.1,0.1 v 6 c 0,0.055 0.045,0.1 0.1,0.1 h 1.4 c 0.1,0 0,-0.1 0,0 v 5.8 c 0,0.1 0.1,0 0,0 h -1.4 c -0.055,0 -0.1,0.045 -0.1,0.1 v 6 c 0,0.055 0.045,0.1 0.1,0.1 h 1.4 c 0.1,0 0,-0.1 0,0 v 5.8 c 0,0.1 0.1,0 0,0 h -1.4 c -0.055,0 -0.1,0.045 -0.1,0.1 v 6 c 0,0.055 0.045,0.1 0.1,0.1 h 1.4 c 0.1,0 0,-0.1 0,0 v 5.8 c 0,0.1 0.1,0 0,0 h -1.4 c -0.055,0 -0.1,0.045 -0.1,0.1 v 6 c 0,0.055 0.045,0.1 0.1,0.1 h 1.4 c 0.1,0 0,-0.1 0,0 v 5.8 c 0,0.1 0.1,0 0,0 h -1.4 c -0.055,0 -0.1,0.045 -0.1,0.1 v 6 c 0,0.055 0.045,0.1 0.1,0.1 h 1.4 c 0.1,0 0,-0.1 0,0 v 5.8 c 0,0.1 0.1,0 0,0 h -1.4 c -0.055,0 -0.1,0.045 -0.1,0.1 v 6 c 0,0.055 0.045,0.1 0.1,0.1 h 1.4 c 0.1,0 0,-0.1 0,0 v 5.8 c 0,0.1 0.1,0 0,0 h -1.4 c -0.055,0 -0.1,0.045 -0.1,0.1 v 6 c 0,0.055 0.045,0.1 0.1,0.1 h 1.4 c 0.1,0 0,-0.1 0,0 v 5.8 c 0,0.1 0.1,0 0,0 h -1.4 c -0.055,0 -0.1,0.045 -0.1,0.1 v 6 c 0,0.055 0.045,0.1 0.1,0.1 h 1.4 c 0.1,0 0,-0.1 0,0 v 5.8 c 0,0.1 0.1,0 0,0 h -1.4 c -0.055,0 -0.1,0.045 -0.1,0.1 v 6 c 0,0.055 0.045,0.1 0.1,0.1 h 1.4 c 0.1,0 0,-0.1 0,0 v 9.4 6 c 0,0.055 0.045,0.1 0.1,0.1 h -0.696"
         stroke="#000000"
         stroke-width="0.2"
         id="path14" /></g><g
       id="p-6"
       style="fill:none;stroke-linecap:round;stroke-linejoin:round"
       transform="translate(59.890001,123.67502)"><path
         d="m 157.981,137 h -2.9 c -0.1,0 0,0.1 0,0 v -2.8 c 0,-0.1 -0.1,0 0,0 h 5.8 c 0.1,0 0,-0.1 0,0 v 2.8 c 0,0.1 0.1,0 0,0 z"
         stroke="#0000ff"
         stroke-width="0.2"
         id="path15" /><path
         d="m 169.981,137 h -2.9 c -0.1,0 0,0.1 0,0 v -2.8 c 0,-0.1 -0.1,0 0,0 h 5.8 c 0.1,0 0,-0.1 0,0 v 2.8 c 0,0.1 0.1,0 0,0 z"
         stroke="#0000ff"
         stroke-width="0.2"
         id="path16" /><path
         d="m 144.689,140.2 h 38.584 0.804 c 0.055,0 0.1,-0.045 0.1,-0.1 v -6 -9.5 c 0,-0.055 -0.045,-0.1 -0.1,-0.1 h -1.4 c -0.1,0 0,0.1 0,0 v -5.8 c 0,-0.1 -0.1,0 0,0 h 1.4 c 0.055,0 0.1,-0.045 0.1,-0.1 v -6 c 0,-0.055 -0.045,-0.1 -0.1,-0.1 h -1.4 c -0.1,0 0,0.1 0,0 v -5.8 c 0,-0.1 -0.1,0 0,0 h 1.4 c 0.055,0 0.1,-0.045 0.1,-0.1 v -6 c 0,-0.055 -0.045,-0.1 -0.1,-0.1 h -1.4 c -0.1,0 0,0.1 0,0 v -5.8 c 0,-0.1 -0.1,0 0,0 h 1.4 c 0.055,0 0.1,-0.045 0.1,-0.1 v -6 c 0,-0.055 -0.045,-0.1 -0.1,-0.1 h -1.4 c -0.1,0 0,0.1 0,0 v -5.8 c 0,-0.1 -0.1,0 0,0 h 1.4 c 0.055,0 0.1,-0.045 0.1,-0.1 v -6 c 0,-0.055 -0.045,-0.1 -0.1,-0.1 h -1.4 c -0.1,0 0,0.1 0,0 v -5.8 c 0,-0.1 -0.1,0 0,0 h 1.4 c 0.055,0 0.1,-0.045 0.1,-0.1 v -6 c 0,-0.055 -0.045,-0.1 -0.1,-0.1 h -1.4 c -0.1,0 0,0.1 0,0 v -5.8 c 0,-0.1 -0.1,0 0,0 h 1.4 c 0.055,0 0.1,-0.045 0.1,-0.1 v -6 c 0,-0.055 -0.045,-0.1 -0.1,-0.1 h -1.4 c -0.1,0 0,0.1 0,0 v -5.8 c 0,-0.1 -0.1,0 0,0 h 1.4 c 0.055,0 0.1,-0.045 0.1,-0.1 v -6 c 0,-0.055 -0.045,-0.1 -0.1,-0.1 h -1.4 c -0.1,0 0,0.1 0,0 v -5.8 c 0,-0.1 -0.1,0 0,0 h 1.4 c 0.055,0 0.1,-0.045 0.1,-0.1 v -6 c 0,-0.055 -0.045,-0.1 -0.1,-0.1 h -1.4 c -0.1,0 0,0.1 0,0 v -5.8 c 0,-0.1 -0.1,0 0,0 h 1.4 c 0.055,0 0.1,-0.045 0.1,-0.1 v -9.5 c 0,-0.055 -0.045,-0.1 -0.1,-0.1 h -0.804 -10.192 c -0.1,0 0,0.1 0,0 v -2.9 c 0,-0.055 -0.045,-0.1 -0.1,-0.1 h -6 c -0.055,0 -0.1,0.045 -0.1,0.1 V 13 c 0,0.1 0.1,0 0,0 h -5.8 c -0.1,0 0,0.1 0,0 v -2.9 c 0,-0.055 -0.045,-0.1 -0.1,-0.1 h -6 c -0.055,0 -0.1,0.045 -0.1,0.1 V 13 c 0,0.1 0.1,0 0,0 h -10.192 -0.804 c -0.055,0 -0.1,0.045 -0.1,0.1 v 9.5 c 0,0.055 0.045,0.1 0.1,0.1 h 1.4 c 0.1,0 0,-0.1 0,0 v 5.8 c 0,0.1 0.1,0 0,0 h -1.4 c -0.055,0 -0.1,0.045 -0.1,0.1 v 6 c 0,0.055 0.045,0.1 0.1,0.1 h 1.4 c 0.1,0 0,-0.1 0,0 v 5.8 c 0,0.1 0.1,0 0,0 h -1.4 c -0.055,0 -0.1,0.045 -0.1,0.1 v 6 c 0,0.055 0.045,0.1 0.1,0.1 h 1.4 c 0.1,0 0,-0.1 0,0 v 5.8 c 0,0.1 0.1,0 0,0 h -1.4 c -0.055,0 -0.1,0.045 -0.1,0.1 v 6 c 0,0.055 0.045,0.1 0.1,0.1 h 1.4 c 0.1,0 0,-0.1 0,0 v 5.8 c 0,0.1 0.1,0 0,0 h -1.4 c -0.055,0 -0.1,0.045 -0.1,0.1 v 6 c 0,0.055 0.045,0.1 0.1,0.1 h 1.4 c 0.1,0 0,-0.1 0,0 v 5.8 c 0,0.1 0.1,0 0,0 h -1.4 c -0.055,0 -0.1,0.045 -0.1,0.1 v 6 c 0,0.055 0.045,0.1 0.1,0.1 h 1.4 c 0.1,0 0,-0.1 0,0 v 5.8 c 0,0.1 0.1,0 0,0 h -1.4 c -0.055,0 -0.1,0.045 -0.1,0.1 v 6 c 0,0.055 0.045,0.1 0.1,0.1 h 1.4 c 0.1,0 0,-0.1 0,0 v 5.8 c 0,0.1 0.1,0 0,0 h -1.4 c -0.055,0 -0.1,0.045 -0.1,0.1 v 6 c 0,0.055 0.045,0.1 0.1,0.1 h 1.4 c 0.1,0 0,-0.1 0,0 v 5.8 c 0,0.1 0.1,0 0,0 h -1.4 c -0.055,0 -0.1,0.045 -0.1,0.1 v 6 c 0,0.055 0.045,0.1 0.1,0.1 h 1.4 c 0.1,0 0,-0.1 0,0 v 5.8 c 0,0.1 0.1,0 0,0 h -1.4 c -0.055,0 -0.1,0.045 -0.1,0.1 v 9.5 6 c 0,0.055 0.045,0.1 0.1,0.1 h 0.804"
         stroke="#000000"
         stroke-width="0.2"
         id="path17" /></g><g
       id="p-7"
       style="fill:none;stroke-linecap:round;stroke-linejoin:round"
       transform="translate(17.998001,255.66253)"><path
         d="m 199.873,137 h -2.9 c -0.1,0 0,0.1 0,0 v -2.8 c 0,-0.1 -0.1,0 0,0 h 5.8 c 0.1,0 0,-0.1 0,0 v 2.8 c 0,0.1 0.1,0 0,0 z"
         stroke="#0000ff"
         stroke-width="0.2"
         id="path18" /><path
         d="m 211.873,137 h -2.9 c -0.1,0 0,0.1 0,0 v -2.8 c 0,-0.1 -0.1,0 0,0 h 5.8 c 0.1,0 0,-0.1 0,0 v 2.8 c 0,0.1 0.1,0 0,0 z"
         stroke="#0000ff"
         stroke-width="0.2"
         id="path19" /><path
         d="m 186.581,140.2 h 38.585 -0.696 c 0.055,0 0.1,-0.045 0.1,-0.1 v -6 -9.4 c 0,-0.1 -0.1,0 0,0 h 1.4 c 0.055,0 0.1,-0.045 0.1,-0.1 v -6 c 0,-0.055 -0.045,-0.1 -0.1,-0.1 h -1.4 c -0.1,0 0,0.1 0,0 v -5.8 c 0,-0.1 -0.1,0 0,0 h 1.4 c 0.055,0 0.1,-0.045 0.1,-0.1 v -6 c 0,-0.055 -0.045,-0.1 -0.1,-0.1 h -1.4 c -0.1,0 0,0.1 0,0 v -5.8 c 0,-0.1 -0.1,0 0,0 h 1.4 c 0.055,0 0.1,-0.045 0.1,-0.1 v -6 c 0,-0.055 -0.045,-0.1 -0.1,-0.1 h -1.4 c -0.1,0 0,0.1 0,0 v -5.8 c 0,-0.1 -0.1,0 0,0 h 1.4 c 0.055,0 0.1,-0.045 0.1,-0.1 v -6 c 0,-0.055 -0.045,-0.1 -0.1,-0.1 h -1.4 c -0.1,0 0,0.1 0,0 v -5.8 c 0,-0.1 -0.1,0 0,0 h 1.4 c 0.055,0 0.1,-0.045 0.1,-0.1 v -6 c 0,-0.055 -0.045,-0.1 -0.1,-0.1 h -1.4 c -0.1,0 0,0.1 0,0 v -5.8 c 0,-0.1 -0.1,0 0,0 h 1.4 c 0.055,0 0.1,-0.045 0.1,-0.1 v -6 c 0,-0.055 -0.045,-0.1 -0.1,-0.1 h -1.4 c -0.1,0 0,0.1 0,0 v -5.8 c 0,-0.1 -0.1,0 0,0 h 1.4 c 0.055,0 0.1,-0.045 0.1,-0.1 v -6 c 0,-0.055 -0.045,-0.1 -0.1,-0.1 h -1.4 c -0.1,0 0,0.1 0,0 v -5.8 c 0,-0.1 -0.1,0 0,0 h 1.4 c 0.055,0 0.1,-0.045 0.1,-0.1 v -6 c 0,-0.055 -0.045,-0.1 -0.1,-0.1 h -1.4 c -0.1,0 0,0.1 0,0 v -5.8 c 0,-0.1 -0.1,0 0,0 h 1.4 c 0.055,0 0.1,-0.045 0.1,-0.1 v -6 c 0,-0.055 -0.045,-0.1 -0.1,-0.1 h -1.4 c -0.1,0 0,0.1 0,0 v -9.4 c 0,-0.055 -0.045,-0.1 -0.1,-0.1 h 0.696 -10.193 c -0.1,0 0,0.1 0,0 v -2.9 c 0,-0.055 -0.044,-0.1 -0.1,-0.1 h -6 c -0.055,0 -0.1,0.045 -0.1,0.1 V 13 c 0,0.1 0.1,0 0,0 h -5.8 c -0.1,0 0,0.1 0,0 v -2.9 c 0,-0.055 -0.044,-0.1 -0.1,-0.1 h -6 c -0.055,0 -0.1,0.045 -0.1,0.1 V 13 c 0,0.1 0.1,0 0,0 h -10.192 0.696 c -0.055,0 -0.1,0.045 -0.1,0.1 v 9.4 c 0,0.1 0.1,0 0,0 h -1.4 c -0.055,0 -0.1,0.045 -0.1,0.1 v 6 c 0,0.055 0.045,0.1 0.1,0.1 h 1.4 c 0.1,0 0,-0.1 0,0 v 5.8 c 0,0.1 0.1,0 0,0 h -1.4 c -0.055,0 -0.1,0.045 -0.1,0.1 v 6 c 0,0.055 0.045,0.1 0.1,0.1 h 1.4 c 0.1,0 0,-0.1 0,0 v 5.8 c 0,0.1 0.1,0 0,0 h -1.4 c -0.055,0 -0.1,0.045 -0.1,0.1 v 6 c 0,0.055 0.045,0.1 0.1,0.1 h 1.4 c 0.1,0 0,-0.1 0,0 v 5.8 c 0,0.1 0.1,0 0,0 h -1.4 c -0.055,0 -0.1,0.045 -0.1,0.1 v 6 c 0,0.055 0.045,0.1 0.1,0.1 h 1.4 c 0.1,0 0,-0.1 0,0 v 5.8 c 0,0.1 0.1,0 0,0 h -1.4 c -0.055,0 -0.1,0.045 -0.1,0.1 v 6 c 0,0.055 0.045,0.1 0.1,0.1 h 1.4 c 0.1,0 0,-0.1 0,0 v 5.8 c 0,0.1 0.1,0 0,0 h -1.4 c -0.055,0 -0.1,0.045 -0.1,0.1 v 6 c 0,0.055 0.045,0.1 0.1,0.1 h 1.4 c 0.1,0 0,-0.1 0,0 v 5.8 c 0,0.1 0.1,0 0,0 h -1.4 c -0.055,0 -0.1,0.045 -0.1,0.1 v 6 c 0,0.055 0.045,0.1 0.1,0.1 h 1.4 c 0.1,0 0,-0.1 0,0 v 5.8 c 0,0.1 0.1,0 0,0 h -1.4 c -0.055,0 -0.1,0.045 -0.1,0.1 v 6 c 0,0.055 0.045,0.1 0.1,0.1 h 1.4 c 0.1,0 0,-0.1 0,0 v 5.8 c 0,0.1 0.1,0 0,0 h -1.4 c -0.055,0 -0.1,0.045 -0.1,0.1 v 6 c 0,0.055 0.045,0.1 0.1,0.1 h 1.4 c 0.1,0 0,-0.1 0,0 v 9.4 6 c 0,0.055 0.045,0.1 0.1,0.1 h -0.696"
         stroke="#000000"
         stroke-width="0.2"
         id="path20" /></g><g
       id="p-8"
       style="fill:none;stroke-linecap:round;stroke-linejoin:round"
       transform="translate(117.61751,-3.0208332)"><path
         d="m 241.766,137 h -2.9 c -0.1,0 0,0.1 0,0 v -2.8 c 0,-0.1 -0.1,0 0,0 h 5.8 c 0.1,0 0,-0.1 0,0 v 2.8 c 0,0.1 0.1,0 0,0 z"
         stroke="#0000ff"
         stroke-width="0.2"
         id="path21" /><path
         d="m 253.766,137 h -2.9 c -0.1,0 0,0.1 0,0 v -2.8 c 0,-0.1 -0.1,0 0,0 h 5.8 c 0.1,0 0,-0.1 0,0 v 2.8 c 0,0.1 0.1,0 0,0 z"
         stroke="#0000ff"
         stroke-width="0.2"
         id="path22" /><path
         d="m 228.473,140.2 h 38.585 0.804 c 0.055,0 0.1,-0.045 0.1,-0.1 v -6 -9.5 c 0,-0.055 -0.045,-0.1 -0.1,-0.1 h -1.4 c -0.1,0 0,0.1 0,0 v -5.8 c 0,-0.1 -0.1,0 0,0 h 1.4 c 0.055,0 0.1,-0.045 0.1,-0.1 v -6 c 0,-0.055 -0.045,-0.1 -0.1,-0.1 h -1.4 c -0.1,0 0,0.1 0,0 v -5.8 c 0,-0.1 -0.1,0 0,0 h 1.4 c 0.055,0 0.1,-0.045 0.1,-0.1 v -6 c 0,-0.055 -0.045,-0.1 -0.1,-0.1 h -1.4 c -0.1,0 0,0.1 0,0 v -5.8 c 0,-0.1 -0.1,0 0,0 h 1.4 c 0.055,0 0.1,-0.045 0.1,-0.1 v -6 c 0,-0.055 -0.045,-0.1 -0.1,-0.1 h -1.4 c -0.1,0 0,0.1 0,0 v -5.8 c 0,-0.1 -0.1,0 0,0 h 1.4 c 0.055,0 0.1,-0.045 0.1,-0.1 v -6 c 0,-0.055 -0.045,-0.1 -0.1,-0.1 h -1.4 c -0.1,0 0,0.1 0,0 v -5.8 c 0,-0.1 -0.1,0 0,0 h 1.4 c 0.055,0 0.1,-0.045 0.1,-0.1 v -6 c 0,-0.055 -0.045,-0.1 -0.1,-0.1 h -1.4 c -0.1,0 0,0.1 0,0 v -5.8 c 0,-0.1 -0.1,0 0,0 h 1.4 c 0.055,0 0.1,-0.045 0.1,-0.1 v -6 c 0,-0.055 -0.045,-0.1 -0.1,-0.1 h -1.4 c -0.1,0 0,0.1 0,0 v -5.8 c 0,-0.1 -0.1,0 0,0 h 1.4 c 0.055,0 0.1,-0.045 0.1,-0.1 v -6 c 0,-0.055 -0.045,-0.1 -0.1,-0.1 h -1.4 c -0.1,0 0,0.1 0,0 v -5.8 c 0,-0.1 -0.1,0 0,0 h 1.4 c 0.055,0 0.1,-0.045 0.1,-0.1 v -6 c 0,-0.055 -0.045,-0.1 -0.1,-0.1 h -1.4 c -0.1,0 0,0.1 0,0 v -5.8 c 0,-0.1 -0.1,0 0,0 h 1.4 c 0.055,0 0.1,-0.045 0.1,-0.1 v -9.5 c 0,-0.055 -0.045,-0.1 -0.1,-0.1 h -0.804 -10.192 c -0.1,0 0,0.1 0,0 v -2.9 c 0,-0.055 -0.045,-0.1 -0.1,-0.1 h -6 c -0.056,0 -0.1,0.045 -0.1,0.1 V 13 c 0,0.1 0.1,0 0,0 h -5.8 c -0.1,0 0,0.1 0,0 v -2.9 c 0,-0.055 -0.045,-0.1 -0.1,-0.1 h -6 c -0.056,0 -0.1,0.045 -0.1,0.1 V 13 c 0,0.1 0.1,0 0,0 h -10.193 -0.803 c -0.056,0 -0.1,0.045 -0.1,0.1 v 9.5 c 0,0.055 0.044,0.1 0.1,0.1 h 1.4 c 0.1,0 0,-0.1 0,0 v 5.8 c 0,0.1 0.1,0 0,0 h -1.4 c -0.056,0 -0.1,0.045 -0.1,0.1 v 6 c 0,0.055 0.044,0.1 0.1,0.1 h 1.4 c 0.1,0 0,-0.1 0,0 v 5.8 c 0,0.1 0.1,0 0,0 h -1.4 c -0.056,0 -0.1,0.045 -0.1,0.1 v 6 c 0,0.055 0.044,0.1 0.1,0.1 h 1.4 c 0.1,0 0,-0.1 0,0 v 5.8 c 0,0.1 0.1,0 0,0 h -1.4 c -0.056,0 -0.1,0.045 -0.1,0.1 v 6 c 0,0.055 0.044,0.1 0.1,0.1 h 1.4 c 0.1,0 0,-0.1 0,0 v 5.8 c 0,0.1 0.1,0 0,0 h -1.4 c -0.056,0 -0.1,0.045 -0.1,0.1 v 6 c 0,0.055 0.044,0.1 0.1,0.1 h 1.4 c 0.1,0 0,-0.1 0,0 v 5.8 c 0,0.1 0.1,0 0,0 h -1.4 c -0.056,0 -0.1,0.045 -0.1,0.1 v 6 c 0,0.055 0.044,0.1 0.1,0.1 h 1.4 c 0.1,0 0,-0.1 0,0 v 5.8 c 0,0.1 0.1,0 0,0 h -1.4 c -0.056,0 -0.1,0.045 -0.1,0.1 v 6 c 0,0.055 0.044,0.1 0.1,0.1 h 1.4 c 0.1,0 0,-0.1 0,0 v 5.8 c 0,0.1 0.1,0 0,0 h -1.4 c -0.056,0 -0.1,0.045 -0.1,0.1 v 6 c 0,0.055 0.044,0.1 0.1,0.1 h 1.4 c 0.1,0 0,-0.1 0,0 v 5.8 c 0,0.1 0.1,0 0,0 h -1.4 c -0.056,0 -0.1,0.045 -0.1,0.1 v 6 c 0,0.055 0.044,0.1 0.1,0.1 h 1.4 c 0.1,0 0,-0.1 0,0 v 5.8 c 0,0.1 0.1,0 0,0 h -1.4 c -0.056,0 -0.1,0.045 -0.1,0.1 v 9.5 6 c 0,0.055 0.044,0.1 0.1,0.1 h 0.803"
         stroke="#000000"
         stroke-width="0.2"
         id="path23" /></g><g
       id="p-9"
       style="fill:none;stroke-linecap:round;stroke-linejoin:round"
       transform="translate(117.61751,-3.0208332)"><path
         d="m 283.658,137 h -2.9 c -0.1,0 0,0.1 0,0 v -2.8 c 0,-0.1 -0.1,0 0,0 h 5.8 c 0.1,0 0,-0.1 0,0 v 2.8 c 0,0.1 0.1,0 0,0 z"
         stroke="#0000ff"
         stroke-width="0.2"
         id="path24" /><path
         d="m 295.658,137 h -2.9 c -0.1,0 0,0.1 0,0 v -2.8 c 0,-0.1 -0.1,0 0,0 h 5.8 c 0.1,0 0,-0.1 0,0 v 2.8 c 0,0.1 0.1,0 0,0 z"
         stroke="#0000ff"
         stroke-width="0.2"
         id="path25" /><path
         d="m 270.366,140.2 h 38.584 -0.696 c 0.056,0 0.1,-0.045 0.1,-0.1 v -6 -9.4 c 0,-0.1 -0.1,0 0,0 h 1.4 c 0.056,0 0.1,-0.045 0.1,-0.1 v -6 c 0,-0.055 -0.044,-0.1 -0.1,-0.1 h -1.4 c -0.1,0 0,0.1 0,0 v -5.8 c 0,-0.1 -0.1,0 0,0 h 1.4 c 0.056,0 0.1,-0.045 0.1,-0.1 v -6 c 0,-0.055 -0.044,-0.1 -0.1,-0.1 h -1.4 c -0.1,0 0,0.1 0,0 v -5.8 c 0,-0.1 -0.1,0 0,0 h 1.4 c 0.056,0 0.1,-0.045 0.1,-0.1 v -6 c 0,-0.055 -0.044,-0.1 -0.1,-0.1 h -1.4 c -0.1,0 0,0.1 0,0 v -5.8 c 0,-0.1 -0.1,0 0,0 h 1.4 c 0.056,0 0.1,-0.045 0.1,-0.1 v -6 c 0,-0.055 -0.044,-0.1 -0.1,-0.1 h -1.4 c -0.1,0 0,0.1 0,0 v -5.8 c 0,-0.1 -0.1,0 0,0 h 1.4 c 0.056,0 0.1,-0.045 0.1,-0.1 v -6 c 0,-0.055 -0.044,-0.1 -0.1,-0.1 h -1.4 c -0.1,0 0,0.1 0,0 v -5.8 c 0,-0.1 -0.1,0 0,0 h 1.4 c 0.056,0 0.1,-0.045 0.1,-0.1 v -6 c 0,-0.055 -0.044,-0.1 -0.1,-0.1 h -1.4 c -0.1,0 0,0.1 0,0 v -5.8 c 0,-0.1 -0.1,0 0,0 h 1.4 c 0.056,0 0.1,-0.045 0.1,-0.1 v -6 c 0,-0.055 -0.044,-0.1 -0.1,-0.1 h -1.4 c -0.1,0 0,0.1 0,0 v -5.8 c 0,-0.1 -0.1,0 0,0 h 1.4 c 0.056,0 0.1,-0.045 0.1,-0.1 v -6 c 0,-0.055 -0.044,-0.1 -0.1,-0.1 h -1.4 c -0.1,0 0,0.1 0,0 v -5.8 c 0,-0.1 -0.1,0 0,0 h 1.4 c 0.056,0 0.1,-0.045 0.1,-0.1 v -6 c 0,-0.055 -0.044,-0.1 -0.1,-0.1 h -1.4 c -0.1,0 0,0.1 0,0 v -9.4 c 0,-0.055 -0.044,-0.1 -0.1,-0.1 h 0.696 -10.192 c -0.1,0 0,0.1 0,0 v -2.9 c 0,-0.055 -0.045,-0.1 -0.1,-0.1 h -6 c -0.055,0 -0.1,0.045 -0.1,0.1 V 13 c 0,0.1 0.1,0 0,0 h -5.8 c -0.1,0 0,0.1 0,0 v -2.9 c 0,-0.055 -0.045,-0.1 -0.1,-0.1 h -6 c -0.055,0 -0.1,0.045 -0.1,0.1 V 13 c 0,0.1 0.1,0 0,0 h -10.192 0.696 c -0.055,0 -0.1,0.045 -0.1,0.1 v 9.4 c 0,0.1 0.1,0 0,0 h -1.4 c -0.055,0 -0.1,0.045 -0.1,0.1 v 6 c 0,0.055 0.045,0.1 0.1,0.1 h 1.4 c 0.1,0 0,-0.1 0,0 v 5.8 c 0,0.1 0.1,0 0,0 h -1.4 c -0.055,0 -0.1,0.045 -0.1,0.1 v 6 c 0,0.055 0.045,0.1 0.1,0.1 h 1.4 c 0.1,0 0,-0.1 0,0 v 5.8 c 0,0.1 0.1,0 0,0 h -1.4 c -0.055,0 -0.1,0.045 -0.1,0.1 v 6 c 0,0.055 0.045,0.1 0.1,0.1 h 1.4 c 0.1,0 0,-0.1 0,0 v 5.8 c 0,0.1 0.1,0 0,0 h -1.4 c -0.055,0 -0.1,0.045 -0.1,0.1 v 6 c 0,0.055 0.045,0.1 0.1,0.1 h 1.4 c 0.1,0 0,-0.1 0,0 v 5.8 c 0,0.1 0.1,0 0,0 h -1.4 c -0.055,0 -0.1,0.045 -0.1,0.1 v 6 c 0,0.055 0.045,0.1 0.1,0.1 h 1.4 c 0.1,0 0,-0.1 0,0 v 5.8 c 0,0.1 0.1,0 0,0 h -1.4 c -0.055,0 -0.1,0.045 -0.1,0.1 v 6 c 0,0.055 0.045,0.1 0.1,0.1 h 1.4 c 0.1,0 0,-0.1 0,0 v 5.8 c 0,0.1 0.1,0 0,0 h -1.4 c -0.055,0 -0.1,0.045 -0.1,0.1 v 6 c 0,0.055 0.045,0.1 0.1,0.1 h 1.4 c 0.1,0 0,-0.1 0,0 v 5.8 c 0,0.1 0.1,0 0,0 h -1.4 c -0.055,0 -0.1,0.045 -0.1,0.1 v 6 c 0,0.055 0.045,0.1 0.1,0.1 h 1.4 c 0.1,0 0,-0.1 0,0 v 5.8 c 0,0.1 0.1,0 0,0 h -1.4 c -0.055,0 -0.1,0.045 -0.1,0.1 v 6 c 0,0.055 0.045,0.1 0.1,0.1 h 1.4 c 0.1,0 0,-0.1 0,0 v 9.4 6 c 0,0.055 0.045,0.1 0.1,0.1 h -0.696"
         stroke="#000000"
         stroke-width="0.2"
         id="path26" /></g><g
       id="p-10"
       style="fill:none;stroke-linecap:round;stroke-linejoin:round"
       transform="translate(117.61751,-3.0208332)"><path
         d="m 326.55,137 h -2.9 c -0.1,0 0,0.1 0,0 v -2.8 c 0,-0.1 -0.1,0 0,0 h 5.8 c 0.1,0 0,-0.1 0,0 v 2.8 c 0,0.1 0.1,0 0,0 z"
         stroke="#0000ff"
         stroke-width="0.2"
         id="path27" /><path
         d="m 338.55,137 h -2.9 c -0.1,0 0,0.1 0,0 v -2.8 c 0,-0.1 -0.1,0 0,0 h 5.8 c 0.1,0 0,-0.1 0,0 v 2.8 c 0,0.1 0.1,0 0,0 z"
         stroke="#0000ff"
         stroke-width="0.2"
         id="path28" /><path
         d="m 350.55,137 h -2.9 c -0.1,0 0,0.1 0,0 v -2.8 c 0,-0.1 -0.1,0 0,0 h 5.8 c 0.1,0 0,-0.1 0,0 v 2.8 c 0,0.1 0.1,0 0,0 z"
         stroke="#0000ff"
         stroke-width="0.2"
         id="path29" /><path
         d="m 362.55,137 h -2.9 c -0.1,0 0,0.1 0,0 v -2.8 c 0,-0.1 -0.1,0 0,0 h 5.8 c 0.1,0 0,-0.1 0,0 v 2.8 c 0,0.1 0.1,0 0,0 z"
         stroke="#0000ff"
         stroke-width="0.2"
         id="path30" /><path
         d="m 374.55,137 h -2.9 c -0.1,0 0,0.1 0,0 v -2.8 c 0,-0.1 -0.1,0 0,0 h 5.8 c 0.1,0 0,-0.1 0,0 v 2.8 c 0,0.1 0.1,0 0,0 z"
         stroke="#0000ff"
         stroke-width="0.2"
         id="path31" /><path
         d="m 386.55,137 h -2.9 c -0.1,0 0,0.1 0,0 v -2.8 c 0,-0.1 -0.1,0 0,0 h 5.8 c 0.1,0 0,-0.1 0,0 v 2.8 c 0,0.1 0.1,0 0,0 z"
         stroke="#0000ff"
         stroke-width="0.2"
         id="path32" /><path
         d="m 312.258,140.2 h 88.585 0.804 c 0.055,0 0.1,-0.045 0.1,-0.1 v -6 -9.5 c 0,-0.055 -0.045,-0.1 -0.1,-0.1 h -1.4 c -0.1,0 0,0.1 0,0 v -5.8 c 0,-0.1 -0.1,0 0,0 h 1.4 c 0.055,0 0.1,-0.045 0.1,-0.1 v -6 c 0,-0.055 -0.045,-0.1 -0.1,-0.1 h -1.4 c -0.1,0 0,0.1 0,0 v -5.8 c 0,-0.1 -0.1,0 0,0 h 1.4 c 0.055,0 0.1,-0.045 0.1,-0.1 v -6 c 0,-0.055 -0.045,-0.1 -0.1,-0.1 h -1.4 c -0.1,0 0,0.1 0,0 v -5.8 c 0,-0.1 -0.1,0 0,0 h 1.4 c 0.055,0 0.1,-0.045 0.1,-0.1 v -6 c 0,-0.055 -0.045,-0.1 -0.1,-0.1 h -1.4 c -0.1,0 0,0.1 0,0 v -5.8 c 0,-0.1 -0.1,0 0,0 h 1.4 c 0.055,0 0.1,-0.045 0.1,-0.1 v -6 c 0,-0.055 -0.045,-0.1 -0.1,-0.1 h -1.4 c -0.1,0 0,0.1 0,0 v -5.8 c 0,-0.1 -0.1,0 0,0 h 1.4 c 0.055,0 0.1,-0.045 0.1,-0.1 v -6 c 0,-0.055 -0.045,-0.1 -0.1,-0.1 h -1.4 c -0.1,0 0,0.1 0,0 v -5.8 c 0,-0.1 -0.1,0 0,0 h 1.4 c 0.055,0 0.1,-0.045 0.1,-0.1 v -6 c 0,-0.055 -0.045,-0.1 -0.1,-0.1 h -1.4 c -0.1,0 0,0.1 0,0 v -5.8 c 0,-0.1 -0.1,0 0,0 h 1.4 c 0.055,0 0.1,-0.045 0.1,-0.1 v -6 c 0,-0.055 -0.045,-0.1 -0.1,-0.1 h -1.4 c -0.1,0 0,0.1 0,0 v -5.8 c 0,-0.1 -0.1,0 0,0 h 1.4 c 0.055,0 0.1,-0.045 0.1,-0.1 v -6 c 0,-0.055 -0.045,-0.1 -0.1,-0.1 h -1.4 c -0.1,0 0,0.1 0,0 v -5.8 c 0,-0.1 -0.1,0 0,0 h 1.4 c 0.055,0 0.1,-0.045 0.1,-0.1 v -9.5 c 0,-0.055 -0.045,-0.1 -0.1,-0.1 h -0.804 -11.193 c -0.1,0 0,0.1 0,0 v -2.9 c 0,-0.055 -0.044,-0.1 -0.1,-0.1 h -6 c -0.055,0 -0.1,0.045 -0.1,0.1 V 13 c 0,0.1 0.1,0 0,0 h -5.8 c -0.1,0 0,0.1 0,0 v -2.9 c 0,-0.055 -0.044,-0.1 -0.1,-0.1 h -6 c -0.055,0 -0.1,0.045 -0.1,0.1 V 13 c 0,0.1 0.1,0 0,0 h -5.8 c -0.1,0 0,0.1 0,0 v -2.9 c 0,-0.055 -0.044,-0.1 -0.1,-0.1 h -6 c -0.055,0 -0.1,0.045 -0.1,0.1 V 13 c 0,0.1 0.1,0 0,0 h -5.8 c -0.1,0 0,0.1 0,0 v -2.9 c 0,-0.055 -0.044,-0.1 -0.1,-0.1 h -6 c -0.055,0 -0.1,0.045 -0.1,0.1 V 13 c 0,0.1 0.1,0 0,0 h -5.8 c -0.1,0 0,0.1 0,0 v -2.9 c 0,-0.055 -0.044,-0.1 -0.1,-0.1 h -6 c -0.055,0 -0.1,0.045 -0.1,0.1 V 13 c 0,0.1 0.1,0 0,0 h -5.8 c -0.1,0 0,0.1 0,0 v -2.9 c 0,-0.055 -0.044,-0.1 -0.1,-0.1 h -6 c -0.055,0 -0.1,0.045 -0.1,0.1 V 13 c 0,0.1 0.1,0 0,0 h -11.192 -0.804 c -0.055,0 -0.1,0.045 -0.1,0.1 v 9.5 c 0,0.055 0.045,0.1 0.1,0.1 h 1.4 c 0.1,0 0,-0.1 0,0 v 5.8 c 0,0.1 0.1,0 0,0 h -1.4 c -0.055,0 -0.1,0.045 -0.1,0.1 v 6 c 0,0.055 0.045,0.1 0.1,0.1 h 1.4 c 0.1,0 0,-0.1 0,0 v 5.8 c 0,0.1 0.1,0 0,0 h -1.4 c -0.055,0 -0.1,0.045 -0.1,0.1 v 6 c 0,0.055 0.045,0.1 0.1,0.1 h 1.4 c 0.1,0 0,-0.1 0,0 v 5.8 c 0,0.1 0.1,0 0,0 h -1.4 c -0.055,0 -0.1,0.045 -0.1,0.1 v 6 c 0,0.055 0.045,0.1 0.1,0.1 h 1.4 c 0.1,0 0,-0.1 0,0 v 5.8 c 0,0.1 0.1,0 0,0 h -1.4 c -0.055,0 -0.1,0.045 -0.1,0.1 v 6 c 0,0.055 0.045,0.1 0.1,0.1 h 1.4 c 0.1,0 0,-0.1 0,0 v 5.8 c 0,0.1 0.1,0 0,0 h -1.4 c -0.055,0 -0.1,0.045 -0.1,0.1 v 6 c 0,0.055 0.045,0.1 0.1,0.1 h 1.4 c 0.1,0 0,-0.1 0,0 v 5.8 c 0,0.1 0.1,0 0,0 h -1.4 c -0.055,0 -0.1,0.045 -0.1,0.1 v 6 c 0,0.055 0.045,0.1 0.1,0.1 h 1.4 c 0.1,0 0,-0.1 0,0 v 5.8 c 0,0.1 0.1,0 0,0 h -1.4 c -0.055,0 -0.1,0.045 -0.1,0.1 v 6 c 0,0.055 0.045,0.1 0.1,0.1 h 1.4 c 0.1,0 0,-0.1 0,0 v 5.8 c 0,0.1 0.1,0 0,0 h -1.4 c -0.055,0 -0.1,0.045 -0.1,0.1 v 6 c 0,0.055 0.045,0.1 0.1,0.1 h 1.4 c 0.1,0 0,-0.1 0,0 v 5.8 c 0,0.1 0.1,0 0,0 h -1.4 c -0.055,0 -0.1,0.045 -0.1,0.1 v 9.5 6 c 0,0.055 0.045,0.1 0.1,0.1 h 0.804"
         stroke="#000000"
         stroke-width="0.2"
         id="path33" /></g><g
       id="p-11"
       style="fill:none;stroke-linecap:round;stroke-linejoin:round"
       transform="translate(117.61751,-3.0208332)"><path
         d="m 417.443,137 h -2.9 c -0.1,0 0,0.1 0,0 v -2.8 c 0,-0.1 -0.1,0 0,0 h 5.8 c 0.1,0 0,-0.1 0,0 v 2.8 c 0,0.1 0.1,0 0,0 z"
         stroke="#0000ff"
         stroke-width="0.2"
         id="path34" /><path
         d="m 429.443,137 h -2.9 c -0.1,0 0,0.1 0,0 v -2.8 c 0,-0.1 -0.1,0 0,0 h 5.8 c 0.1,0 0,-0.1 0,0 v 2.8 c 0,0.1 0.1,0 0,0 z"
         stroke="#0000ff"
         stroke-width="0.2"
         id="path35" /><path
         d="m 404.15,140.2 h 38.585 -0.696 c 0.055,0 0.1,-0.045 0.1,-0.1 v -6 -9.4 c 0,-0.1 -0.1,0 0,0 h 1.4 c 0.055,0 0.1,-0.045 0.1,-0.1 v -6 c 0,-0.055 -0.045,-0.1 -0.1,-0.1 h -1.4 c -0.1,0 0,0.1 0,0 v -5.8 c 0,-0.1 -0.1,0 0,0 h 1.4 c 0.055,0 0.1,-0.045 0.1,-0.1 v -6 c 0,-0.055 -0.045,-0.1 -0.1,-0.1 h -1.4 c -0.1,0 0,0.1 0,0 v -5.8 c 0,-0.1 -0.1,0 0,0 h 1.4 c 0.055,0 0.1,-0.045 0.1,-0.1 v -6 c 0,-0.055 -0.045,-0.1 -0.1,-0.1 h -1.4 c -0.1,0 0,0.1 0,0 v -5.8 c 0,-0.1 -0.1,0 0,0 h 1.4 c 0.055,0 0.1,-0.045 0.1,-0.1 v -6 c 0,-0.055 -0.045,-0.1 -0.1,-0.1 h -1.4 c -0.1,0 0,0.1 0,0 v -5.8 c 0,-0.1 -0.1,0 0,0 h 1.4 c 0.055,0 0.1,-0.045 0.1,-0.1 v -6 c 0,-0.055 -0.045,-0.1 -0.1,-0.1 h -1.4 c -0.1,0 0,0.1 0,0 v -5.8 c 0,-0.1 -0.1,0 0,0 h 1.4 c 0.055,0 0.1,-0.045 0.1,-0.1 v -6 c 0,-0.055 -0.045,-0.1 -0.1,-0.1 h -1.4 c -0.1,0 0,0.1 0,0 v -5.8 c 0,-0.1 -0.1,0 0,0 h 1.4 c 0.055,0 0.1,-0.045 0.1,-0.1 v -6 c 0,-0.055 -0.045,-0.1 -0.1,-0.1 h -1.4 c -0.1,0 0,0.1 0,0 v -5.8 c 0,-0.1 -0.1,0 0,0 h 1.4 c 0.055,0 0.1,-0.045 0.1,-0.1 v -6 c 0,-0.055 -0.045,-0.1 -0.1,-0.1 h -1.4 c -0.1,0 0,0.1 0,0 v -5.8 c 0,-0.1 -0.1,0 0,0 h 1.4 c 0.055,0 0.1,-0.045 0.1,-0.1 v -6 c 0,-0.055 -0.045,-0.1 -0.1,-0.1 h -1.4 c -0.1,0 0,0.1 0,0 v -9.4 c 0,-0.055 -0.045,-0.1 -0.1,-0.1 h 0.696 -10.192 c -0.1,0 0,0.1 0,0 v -2.9 c 0,-0.055 -0.045,-0.1 -0.1,-0.1 h -6 c -0.055,0 -0.1,0.045 -0.1,0.1 V 13 c 0,0.1 0.1,0 0,0 h -5.8 c -0.1,0 0,0.1 0,0 v -2.9 c 0,-0.055 -0.045,-0.1 -0.1,-0.1 h -6 c -0.055,0 -0.1,0.045 -0.1,0.1 V 13 c 0,0.1 0.1,0 0,0 h -10.193 0.697 c -0.056,0 -0.1,0.045 -0.1,0.1 v 9.4 c 0,0.1 0.1,0 0,0 h -1.4 c -0.056,0 -0.1,0.045 -0.1,0.1 v 6 c 0,0.055 0.044,0.1 0.1,0.1 h 1.4 c 0.1,0 0,-0.1 0,0 v 5.8 c 0,0.1 0.1,0 0,0 h -1.4 c -0.056,0 -0.1,0.045 -0.1,0.1 v 6 c 0,0.055 0.044,0.1 0.1,0.1 h 1.4 c 0.1,0 0,-0.1 0,0 v 5.8 c 0,0.1 0.1,0 0,0 h -1.4 c -0.056,0 -0.1,0.045 -0.1,0.1 v 6 c 0,0.055 0.044,0.1 0.1,0.1 h 1.4 c 0.1,0 0,-0.1 0,0 v 5.8 c 0,0.1 0.1,0 0,0 h -1.4 c -0.056,0 -0.1,0.045 -0.1,0.1 v 6 c 0,0.055 0.044,0.1 0.1,0.1 h 1.4 c 0.1,0 0,-0.1 0,0 v 5.8 c 0,0.1 0.1,0 0,0 h -1.4 c -0.056,0 -0.1,0.045 -0.1,0.1 v 6 c 0,0.055 0.044,0.1 0.1,0.1 h 1.4 c 0.1,0 0,-0.1 0,0 v 5.8 c 0,0.1 0.1,0 0,0 h -1.4 c -0.056,0 -0.1,0.045 -0.1,0.1 v 6 c 0,0.055 0.044,0.1 0.1,0.1 h 1.4 c 0.1,0 0,-0.1 0,0 v 5.8 c 0,0.1 0.1,0 0,0 h -1.4 c -0.056,0 -0.1,0.045 -0.1,0.1 v 6 c 0,0.055 0.044,0.1 0.1,0.1 h 1.4 c 0.1,0 0,-0.1 0,0 v 5.8 c 0,0.1 0.1,0 0,0 h -1.4 c -0.056,0 -0.1,0.045 -0.1,0.1 v 6 c 0,0.055 0.044,0.1 0.1,0.1 h 1.4 c 0.1,0 0,-0.1 0,0 v 5.8 c 0,0.1 0.1,0 0,0 h -1.4 c -0.056,0 -0.1,0.045 -0.1,0.1 v 6 c 0,0.055 0.044,0.1 0.1,0.1 h 1.4 c 0.1,0 0,-0.1 0,0 v 9.4 6 c 0,0.055 0.044,0.1 0.1,0.1 h -0.697"
         stroke="#000000"
         stroke-width="0.2"
         id="path36" /></g><g
       id="p-12"
       style="fill:none;stroke-linecap:round;stroke-linejoin:round"
       transform="translate(117.61751,-3.0208332)"><path
         d="m 459.335,137 h -2.9 c -0.1,0 0,0.1 0,0 v -2.8 c 0,-0.1 -0.1,0 0,0 h 5.8 c 0.1,0 0,-0.1 0,0 v 2.8 c 0,0.1 0.1,0 0,0 z"
         stroke="#0000ff"
         stroke-width="0.2"
         id="path37" /><path
         d="m 471.335,137 h -2.9 c -0.1,0 0,0.1 0,0 v -2.8 c 0,-0.1 -0.1,0 0,0 h 5.8 c 0.1,0 0,-0.1 0,0 v 2.8 c 0,0.1 0.1,0 0,0 z"
         stroke="#0000ff"
         stroke-width="0.2"
         id="path38" /><path
         d="m 446.043,140.2 h 38.585 0.803 c 0.056,0 0.1,-0.045 0.1,-0.1 v -6 -9.5 c 0,-0.055 -0.044,-0.1 -0.1,-0.1 h -1.4 c -0.1,0 0,0.1 0,0 v -5.8 c 0,-0.1 -0.1,0 0,0 h 1.4 c 0.056,0 0.1,-0.045 0.1,-0.1 v -6 c 0,-0.055 -0.044,-0.1 -0.1,-0.1 h -1.4 c -0.1,0 0,0.1 0,0 v -5.8 c 0,-0.1 -0.1,0 0,0 h 1.4 c 0.056,0 0.1,-0.045 0.1,-0.1 v -6 c 0,-0.055 -0.044,-0.1 -0.1,-0.1 h -1.4 c -0.1,0 0,0.1 0,0 v -5.8 c 0,-0.1 -0.1,0 0,0 h 1.4 c 0.056,0 0.1,-0.045 0.1,-0.1 v -6 c 0,-0.055 -0.044,-0.1 -0.1,-0.1 h -1.4 c -0.1,0 0,0.1 0,0 v -5.8 c 0,-0.1 -0.1,0 0,0 h 1.4 c 0.056,0 0.1,-0.045 0.1,-0.1 v -6 c 0,-0.055 -0.044,-0.1 -0.1,-0.1 h -1.4 c -0.1,0 0,0.1 0,0 v -5.8 c 0,-0.1 -0.1,0 0,0 h 1.4 c 0.056,0 0.1,-0.045 0.1,-0.1 v -6 c 0,-0.055 -0.044,-0.1 -0.1,-0.1 h -1.4 c -0.1,0 0,0.1 0,0 v -5.8 c 0,-0.1 -0.1,0 0,0 h 1.4 c 0.056,0 0.1,-0.045 0.1,-0.1 v -6 c 0,-0.055 -0.044,-0.1 -0.1,-0.1 h -1.4 c -0.1,0 0,0.1 0,0 v -5.8 c 0,-0.1 -0.1,0 0,0 h 1.4 c 0.056,0 0.1,-0.045 0.1,-0.1 v -6 c 0,-0.055 -0.044,-0.1 -0.1,-0.1 h -1.4 c -0.1,0 0,0.1 0,0 v -5.8 c 0,-0.1 -0.1,0 0,0 h 1.4 c 0.056,0 0.1,-0.045 0.1,-0.1 v -6 c 0,-0.055 -0.044,-0.1 -0.1,-0.1 h -1.4 c -0.1,0 0,0.1 0,0 v -5.8 c 0,-0.1 -0.1,0 0,0 h 1.4 c 0.056,0 0.1,-0.045 0.1,-0.1 v -9.5 c 0,-0.055 -0.044,-0.1 -0.1,-0.1 h -0.803 -10.193 c -0.1,0 0,0.1 0,0 v -2.9 c 0,-0.055 -0.045,-0.1 -0.1,-0.1 h -6 c -0.055,0 -0.1,0.045 -0.1,0.1 V 13 c 0,0.1 0.1,0 0,0 h -5.8 c -0.1,0 0,0.1 0,0 v -2.9 c 0,-0.055 -0.045,-0.1 -0.1,-0.1 h -6 c -0.055,0 -0.1,0.045 -0.1,0.1 V 13 c 0,0.1 0.1,0 0,0 h -10.192 -0.804 c -0.055,0 -0.1,0.045 -0.1,0.1 v 9.5 c 0,0.055 0.045,0.1 0.1,0.1 h 1.4 c 0.1,0 0,-0.1 0,0 v 5.8 c 0,0.1 0.1,0 0,0 h -1.4 c -0.055,0 -0.1,0.045 -0.1,0.1 v 6 c 0,0.055 0.045,0.1 0.1,0.1 h 1.4 c 0.1,0 0,-0.1 0,0 v 5.8 c 0,0.1 0.1,0 0,0 h -1.4 c -0.055,0 -0.1,0.045 -0.1,0.1 v 6 c 0,0.055 0.045,0.1 0.1,0.1 h 1.4 c 0.1,0 0,-0.1 0,0 v 5.8 c 0,0.1 0.1,0 0,0 h -1.4 c -0.055,0 -0.1,0.045 -0.1,0.1 v 6 c 0,0.055 0.045,0.1 0.1,0.1 h 1.4 c 0.1,0 0,-0.1 0,0 v 5.8 c 0,0.1 0.1,0 0,0 h -1.4 c -0.055,0 -0.1,0.045 -0.1,0.1 v 6 c 0,0.055 0.045,0.1 0.1,0.1 h 1.4 c 0.1,0 0,-0.1 0,0 v 5.8 c 0,0.1 0.1,0 0,0 h -1.4 c -0.055,0 -0.1,0.045 -0.1,0.1 v 6 c 0,0.055 0.045,0.1 0.1,0.1 h 1.4 c 0.1,0 0,-0.1 0,0 v 5.8 c 0,0.1 0.1,0 0,0 h -1.4 c -0.055,0 -0.1,0.045 -0.1,0.1 v 6 c 0,0.055 0.045,0.1 0.1,0.1 h 1.4 c 0.1,0 0,-0.1 0,0 v 5.8 c 0,0.1 0.1,0 0,0 h -1.4 c -0.055,0 -0.1,0.045 -0.1,0.1 v 6 c 0,0.055 0.045,0.1 0.1,0.1 h 1.4 c 0.1,0 0,-0.1 0,0 v 5.8 c 0,0.1 0.1,0 0,0 h -1.4 c -0.055,0 -0.1,0.045 -0.1,0.1 v 6 c 0,0.055 0.045,0.1 0.1,0.1 h 1.4 c 0.1,0 0,-0.1 0,0 v 5.8 c 0,0.1 0.1,0 0,0 h -1.4 c -0.055,0 -0.1,0.045 -0.1,0.1 v 9.5 6 c 0,0.055 0.045,0.1 0.1,0.1 h 0.804"
         stroke="#000000"
         stroke-width="0.2"
         id="path39" /></g><g
       id="p-13"
       style="fill:none;stroke-linecap:round;stroke-linejoin:round"
       transform="translate(-140.54446,128.96669)"><path
         d="m 501.228,137 h -2.9 c -0.1,0 0,0.1 0,0 v -2.8 c 0,-0.1 -0.1,0 0,0 h 5.8 c 0.1,0 0,-0.1 0,0 v 2.8 c 0,0.1 0.1,0 0,0 z"
         stroke="#0000ff"
         stroke-width="0.2"
         id="path40" /><path
         d="m 513.228,137 h -2.9 c -0.1,0 0,0.1 0,0 v -2.8 c 0,-0.1 -0.1,0 0,0 h 5.8 c 0.1,0 0,-0.1 0,0 v 2.8 c 0,0.1 0.1,0 0,0 z"
         stroke="#0000ff"
         stroke-width="0.2"
         id="path41" /><path
         d="m 487.935,140.2 h 38.585 -0.696 c 0.055,0 0.1,-0.045 0.1,-0.1 v -6 -9.4 c 0,-0.1 -0.1,0 0,0 h 1.4 c 0.055,0 0.1,-0.045 0.1,-0.1 v -6 c 0,-0.055 -0.045,-0.1 -0.1,-0.1 h -1.4 c -0.1,0 0,0.1 0,0 v -5.8 c 0,-0.1 -0.1,0 0,0 h 1.4 c 0.055,0 0.1,-0.045 0.1,-0.1 v -6 c 0,-0.055 -0.045,-0.1 -0.1,-0.1 h -1.4 c -0.1,0 0,0.1 0,0 v -5.8 c 0,-0.1 -0.1,0 0,0 h 1.4 c 0.055,0 0.1,-0.045 0.1,-0.1 v -6 c 0,-0.055 -0.045,-0.1 -0.1,-0.1 h -1.4 c -0.1,0 0,0.1 0,0 v -5.8 c 0,-0.1 -0.1,0 0,0 h 1.4 c 0.055,0 0.1,-0.045 0.1,-0.1 v -6 c 0,-0.055 -0.045,-0.1 -0.1,-0.1 h -1.4 c -0.1,0 0,0.1 0,0 v -5.8 c 0,-0.1 -0.1,0 0,0 h 1.4 c 0.055,0 0.1,-0.045 0.1,-0.1 v -6 c 0,-0.055 -0.045,-0.1 -0.1,-0.1 h -1.4 c -0.1,0 0,0.1 0,0 v -5.8 c 0,-0.1 -0.1,0 0,0 h 1.4 c 0.055,0 0.1,-0.045 0.1,-0.1 v -6 c 0,-0.055 -0.045,-0.1 -0.1,-0.1 h -1.4 c -0.1,0 0,0.1 0,0 v -5.8 c 0,-0.1 -0.1,0 0,0 h 1.4 c 0.055,0 0.1,-0.045 0.1,-0.1 v -6 c 0,-0.055 -0.045,-0.1 -0.1,-0.1 h -1.4 c -0.1,0 0,0.1 0,0 v -5.8 c 0,-0.1 -0.1,0 0,0 h 1.4 c 0.055,0 0.1,-0.045 0.1,-0.1 v -6 c 0,-0.055 -0.045,-0.1 -0.1,-0.1 h -1.4 c -0.1,0 0,0.1 0,0 v -5.8 c 0,-0.1 -0.1,0 0,0 h 1.4 c 0.055,0 0.1,-0.045 0.1,-0.1 v -6 c 0,-0.055 -0.045,-0.1 -0.1,-0.1 h -1.4 c -0.1,0 0,0.1 0,0 v -9.4 c 0,-0.055 -0.045,-0.1 -0.1,-0.1 h 0.696 -10.192 c -0.1,0 0,0.1 0,0 v -2.9 c 0,-0.055 -0.045,-0.1 -0.1,-0.1 h -6 c -0.056,0 -0.1,0.045 -0.1,0.1 V 13 c 0,0.1 0.1,0 0,0 h -5.8 c -0.1,0 0,0.1 0,0 v -2.9 c 0,-0.055 -0.045,-0.1 -0.1,-0.1 h -6 c -0.056,0 -0.1,0.045 -0.1,0.1 V 13 c 0,0.1 0.1,0 0,0 h -10.193 0.696 c -0.055,0 -0.1,0.045 -0.1,0.1 v 9.4 c 0,0.1 0.1,0 0,0 h -1.4 c -0.055,0 -0.1,0.045 -0.1,0.1 v 6 c 0,0.055 0.045,0.1 0.1,0.1 h 1.4 c 0.1,0 0,-0.1 0,0 v 5.8 c 0,0.1 0.1,0 0,0 h -1.4 c -0.055,0 -0.1,0.045 -0.1,0.1 v 6 c 0,0.055 0.045,0.1 0.1,0.1 h 1.4 c 0.1,0 0,-0.1 0,0 v 5.8 c 0,0.1 0.1,0 0,0 h -1.4 c -0.055,0 -0.1,0.045 -0.1,0.1 v 6 c 0,0.055 0.045,0.1 0.1,0.1 h 1.4 c 0.1,0 0,-0.1 0,0 v 5.8 c 0,0.1 0.1,0 0,0 h -1.4 c -0.055,0 -0.1,0.045 -0.1,0.1 v 6 c 0,0.055 0.045,0.1 0.1,0.1 h 1.4 c 0.1,0 0,-0.1 0,0 v 5.8 c 0,0.1 0.1,0 0,0 h -1.4 c -0.055,0 -0.1,0.045 -0.1,0.1 v 6 c 0,0.055 0.045,0.1 0.1,0.1 h 1.4 c 0.1,0 0,-0.1 0,0 v 5.8 c 0,0.1 0.1,0 0,0 h -1.4 c -0.055,0 -0.1,0.045 -0.1,0.1 v 6 c 0,0.055 0.045,0.1 0.1,0.1 h 1.4 c 0.1,0 0,-0.1 0,0 v 5.8 c 0,0.1 0.1,0 0,0 h -1.4 c -0.055,0 -0.1,0.045 -0.1,0.1 v 6 c 0,0.055 0.045,0.1 0.1,0.1 h 1.4 c 0.1,0 0,-0.1 0,0 v 5.8 c 0,0.1 0.1,0 0,0 h -1.4 c -0.055,0 -0.1,0.045 -0.1,0.1 v 6 c 0,0.055 0.045,0.1 0.1,0.1 h 1.4 c 0.1,0 0,-0.1 0,0 v 5.8 c 0,0.1 0.1,0 0,0 h -1.4 c -0.055,0 -0.1,0.045 -0.1,0.1 v 6 c 0,0.055 0.045,0.1 0.1,0.1 h 1.4 c 0.1,0 0,-0.1 0,0 v 9.4 6 c 0,0.055 0.045,0.1 0.1,0.1 h -0.696"
         stroke="#000000"
         stroke-width="0.2"
         id="path42" /></g><g
       id="p-14"
       style="fill:none;stroke-linecap:round;stroke-linejoin:round"
       transform="translate(-140.54446,128.96669)"><path
         d="m 543.12,137 h -2.9 c -0.1,0 0,0.1 0,0 v -2.8 c 0,-0.1 -0.1,0 0,0 h 5.8 c 0.1,0 0,-0.1 0,0 v 2.8 c 0,0.1 0.1,0 0,0 z"
         stroke="#0000ff"
         stroke-width="0.2"
         id="path43" /><path
         d="m 555.12,137 h -2.9 c -0.1,0 0,0.1 0,0 v -2.8 c 0,-0.1 -0.1,0 0,0 h 5.8 c 0.1,0 0,-0.1 0,0 v 2.8 c 0,0.1 0.1,0 0,0 z"
         stroke="#0000ff"
         stroke-width="0.2"
         id="path44" /><path
         d="m 529.828,140.2 h 38.584 0.804 c 0.055,0 0.1,-0.045 0.1,-0.1 v -6 -9.5 c 0,-0.055 -0.045,-0.1 -0.1,-0.1 h -1.4 c -0.1,0 0,0.1 0,0 v -5.8 c 0,-0.1 -0.1,0 0,0 h 1.4 c 0.055,0 0.1,-0.045 0.1,-0.1 v -6 c 0,-0.055 -0.045,-0.1 -0.1,-0.1 h -1.4 c -0.1,0 0,0.1 0,0 v -5.8 c 0,-0.1 -0.1,0 0,0 h 1.4 c 0.055,0 0.1,-0.045 0.1,-0.1 v -6 c 0,-0.055 -0.045,-0.1 -0.1,-0.1 h -1.4 c -0.1,0 0,0.1 0,0 v -5.8 c 0,-0.1 -0.1,0 0,0 h 1.4 c 0.055,0 0.1,-0.045 0.1,-0.1 v -6 c 0,-0.055 -0.045,-0.1 -0.1,-0.1 h -1.4 c -0.1,0 0,0.1 0,0 v -5.8 c 0,-0.1 -0.1,0 0,0 h 1.4 c 0.055,0 0.1,-0.045 0.1,-0.1 v -6 c 0,-0.055 -0.045,-0.1 -0.1,-0.1 h -1.4 c -0.1,0 0,0.1 0,0 v -5.8 c 0,-0.1 -0.1,0 0,0 h 1.4 c 0.055,0 0.1,-0.045 0.1,-0.1 v -6 c 0,-0.055 -0.045,-0.1 -0.1,-0.1 h -1.4 c -0.1,0 0,0.1 0,0 v -5.8 c 0,-0.1 -0.1,0 0,0 h 1.4 c 0.055,0 0.1,-0.045 0.1,-0.1 v -6 c 0,-0.055 -0.045,-0.1 -0.1,-0.1 h -1.4 c -0.1,0 0,0.1 0,0 v -5.8 c 0,-0.1 -0.1,0 0,0 h 1.4 c 0.055,0 0.1,-0.045 0.1,-0.1 v -6 c 0,-0.055 -0.045,-0.1 -0.1,-0.1 h -1.4 c -0.1,0 0,0.1 0,0 v -5.8 c 0,-0.1 -0.1,0 0,0 h 1.4 c 0.055,0 0.1,-0.045 0.1,-0.1 v -6 c 0,-0.055 -0.045,-0.1 -0.1,-0.1 h -1.4 c -0.1,0 0,0.1 0,0 v -5.8 c 0,-0.1 -0.1,0 0,0 h 1.4 c 0.055,0 0.1,-0.045 0.1,-0.1 v -9.5 c 0,-0.055 -0.045,-0.1 -0.1,-0.1 h -0.804 -10.192 c -0.1,0 0,0.1 0,0 v -2.9 c 0,-0.055 -0.045,-0.1 -0.1,-0.1 h -6 c -0.055,0 -0.1,0.045 -0.1,0.1 V 13 c 0,0.1 0.1,0 0,0 h -5.8 c -0.1,0 0,0.1 0,0 v -2.9 c 0,-0.055 -0.045,-0.1 -0.1,-0.1 h -6 c -0.055,0 -0.1,0.045 -0.1,0.1 V 13 c 0,0.1 0.1,0 0,0 h -10.192 -0.804 c -0.055,0 -0.1,0.045 -0.1,0.1 v 9.5 c 0,0.055 0.045,0.1 0.1,0.1 h 1.4 c 0.1,0 0,-0.1 0,0 v 5.8 c 0,0.1 0.1,0 0,0 h -1.4 c -0.055,0 -0.1,0.045 -0.1,0.1 v 6 c 0,0.055 0.045,0.1 0.1,0.1 h 1.4 c 0.1,0 0,-0.1 0,0 v 5.8 c 0,0.1 0.1,0 0,0 h -1.4 c -0.055,0 -0.1,0.045 -0.1,0.1 v 6 c 0,0.055 0.045,0.1 0.1,0.1 h 1.4 c 0.1,0 0,-0.1 0,0 v 5.8 c 0,0.1 0.1,0 0,0 h -1.4 c -0.055,0 -0.1,0.045 -0.1,0.1 v 6 c 0,0.055 0.045,0.1 0.1,0.1 h 1.4 c 0.1,0 0,-0.1 0,0 v 5.8 c 0,0.1 0.1,0 0,0 h -1.4 c -0.055,0 -0.1,0.045 -0.1,0.1 v 6 c 0,0.055 0.045,0.1 0.1,0.1 h 1.4 c 0.1,0 0,-0.1 0,0 v 5.8 c 0,0.1 0.1,0 0,0 h -1.4 c -0.055,0 -0.1,0.045 -0.1,0.1 v 6 c 0,0.055 0.045,0.1 0.1,0.1 h 1.4 c 0.1,0 0,-0.1 0,0 v 5.8 c 0,0.1 0.1,0 0,0 h -1.4 c -0.055,0 -0.1,0.045 -0.1,0.1 v 6 c 0,0.055 0.045,0.1 0.1,0.1 h 1.4 c 0.1,0 0,-0.1 0,0 v 5.8 c 0,0.1 0.1,0 0,0 h -1.4 c -0.055,0 -0.1,0.045 -0.1,0.1 v 6 c 0,0.055 0.045,0.1 0.1,0.1 h 1.4 c 0.1,0 0,-0.1 0,0 v 5.8 c 0,0.1 0.1,0 0,0 h -1.4 c -0.055,0 -0.1,0.045 -0.1,0.1 v 6 c 0,0.055 0.045,0.1 0.1,0.1 h 1.4 c 0.1,0 0,-0.1 0,0 v 5.8 c 0,0.1 0.1,0 0,0 h -1.4 c -0.055,0 -0.1,0.045 -0.1,0.1 v 9.5 6 c 0,0.055 0.045,0.1 0.1,0.1 h 0.804"
         stroke="#000000"
         stroke-width="0.2"
         id="path45" /></g><g
       id="p-15"
       style="fill:none;stroke-linecap:round;stroke-linejoin:round"
       transform="translate(-140.54446,128.96669)"><path
         d="m 585.012,137 h -2.9 c -0.1,0 0,0.1 0,0 v -2.8 c 0,-0.1 -0.1,0 0,0 h 5.8 c 0.1,0 0,-0.1 0,0 v 2.8 c 0,0.1 0.1,0 0,0 z"
         stroke="#0000ff"
         stroke-width="0.2"
         id="path46" /><path
         d="m 597.012,137 h -2.9 c -0.1,0 0,0.1 0,0 v -2.8 c 0,-0.1 -0.1,0 0,0 h 5.8 c 0.1,0 0,-0.1 0,0 v 2.8 c 0,0.1 0.1,0 0,0 z"
         stroke="#0000ff"
         stroke-width="0.2"
         id="path47" /><path
         d="m 571.72,140.2 h 38.585 -0.696 c 0.055,0 0.1,-0.045 0.1,-0.1 v -6 -9.4 c 0,-0.1 -0.1,0 0,0 h 1.4 c 0.055,0 0.1,-0.045 0.1,-0.1 v -6 c 0,-0.055 -0.045,-0.1 -0.1,-0.1 h -1.4 c -0.1,0 0,0.1 0,0 v -5.8 c 0,-0.1 -0.1,0 0,0 h 1.4 c 0.055,0 0.1,-0.045 0.1,-0.1 v -6 c 0,-0.055 -0.045,-0.1 -0.1,-0.1 h -1.4 c -0.1,0 0,0.1 0,0 v -5.8 c 0,-0.1 -0.1,0 0,0 h 1.4 c 0.055,0 0.1,-0.045 0.1,-0.1 v -6 c 0,-0.055 -0.045,-0.1 -0.1,-0.1 h -1.4 c -0.1,0 0,0.1 0,0 v -5.8 c 0,-0.1 -0.1,0 0,0 h 1.4 c 0.055,0 0.1,-0.045 0.1,-0.1 v -6 c 0,-0.055 -0.045,-0.1 -0.1,-0.1 h -1.4 c -0.1,0 0,0.1 0,0 v -5.8 c 0,-0.1 -0.1,0 0,0 h 1.4 c 0.055,0 0.1,-0.045 0.1,-0.1 v -6 c 0,-0.055 -0.045,-0.1 -0.1,-0.1 h -1.4 c -0.1,0 0,0.1 0,0 v -5.8 c 0,-0.1 -0.1,0 0,0 h 1.4 c 0.055,0 0.1,-0.045 0.1,-0.1 v -6 c 0,-0.055 -0.045,-0.1 -0.1,-0.1 h -1.4 c -0.1,0 0,0.1 0,0 v -5.8 c 0,-0.1 -0.1,0 0,0 h 1.4 c 0.055,0 0.1,-0.045 0.1,-0.1 v -6 c 0,-0.055 -0.045,-0.1 -0.1,-0.1 h -1.4 c -0.1,0 0,0.1 0,0 v -5.8 c 0,-0.1 -0.1,0 0,0 h 1.4 c 0.055,0 0.1,-0.045 0.1,-0.1 v -6 c 0,-0.055 -0.045,-0.1 -0.1,-0.1 h -1.4 c -0.1,0 0,0.1 0,0 v -5.8 c 0,-0.1 -0.1,0 0,0 h 1.4 c 0.055,0 0.1,-0.045 0.1,-0.1 v -6 c 0,-0.055 -0.045,-0.1 -0.1,-0.1 h -1.4 c -0.1,0 0,0.1 0,0 v -9.4 c 0,-0.055 -0.045,-0.1 -0.1,-0.1 h 0.696 -10.193 c -0.1,0 0,0.1 0,0 v -2.9 c 0,-0.055 -0.044,-0.1 -0.1,-0.1 h -6 c -0.055,0 -0.1,0.045 -0.1,0.1 V 13 c 0,0.1 0.1,0 0,0 h -5.8 c -0.1,0 0,0.1 0,0 v -2.9 c 0,-0.055 -0.044,-0.1 -0.1,-0.1 h -6 c -0.055,0 -0.1,0.045 -0.1,0.1 V 13 c 0,0.1 0.1,0 0,0 h -10.192 0.696 c -0.055,0 -0.1,0.045 -0.1,0.1 v 9.4 c 0,0.1 0.1,0 0,0 h -1.4 c -0.055,0 -0.1,0.045 -0.1,0.1 v 6 c 0,0.055 0.045,0.1 0.1,0.1 h 1.4 c 0.1,0 0,-0.1 0,0 v 5.8 c 0,0.1 0.1,0 0,0 h -1.4 c -0.055,0 -0.1,0.045 -0.1,0.1 v 6 c 0,0.055 0.045,0.1 0.1,0.1 h 1.4 c 0.1,0 0,-0.1 0,0 v 5.8 c 0,0.1 0.1,0 0,0 h -1.4 c -0.055,0 -0.1,0.045 -0.1,0.1 v 6 c 0,0.055 0.045,0.1 0.1,0.1 h 1.4 c 0.1,0 0,-0.1 0,0 v 5.8 c 0,0.1 0.1,0 0,0 h -1.4 c -0.055,0 -0.1,0.045 -0.1,0.1 v 6 c 0,0.055 0.045,0.1 0.1,0.1 h 1.4 c 0.1,0 0,-0.1 0,0 v 5.8 c 0,0.1 0.1,0 0,0 h -1.4 c -0.055,0 -0.1,0.045 -0.1,0.1 v 6 c 0,0.055 0.045,0.1 0.1,0.1 h 1.4 c 0.1,0 0,-0.1 0,0 v 5.8 c 0,0.1 0.1,0 0,0 h -1.4 c -0.055,0 -0.1,0.045 -0.1,0.1 v 6 c 0,0.055 0.045,0.1 0.1,0.1 h 1.4 c 0.1,0 0,-0.1 0,0 v 5.8 c 0,0.1 0.1,0 0,0 h -1.4 c -0.055,0 -0.1,0.045 -0.1,0.1 v 6 c 0,0.055 0.045,0.1 0.1,0.1 h 1.4 c 0.1,0 0,-0.1 0,0 v 5.8 c 0,0.1 0.1,0 0,0 h -1.4 c -0.055,0 -0.1,0.045 -0.1,0.1 v 6 c 0,0.055 0.045,0.1 0.1,0.1 h 1.4 c 0.1,0 0,-0.1 0,0 v 5.8 c 0,0.1 0.1,0 0,0 h -1.4 c -0.055,0 -0.1,0.045 -0.1,0.1 v 6 c 0,0.055 0.045,0.1 0.1,0.1 h 1.4 c 0.1,0 0,-0.1 0,0 v 9.4 6 c 0,0.055 0.045,0.1 0.1,0.1 h -0.696"
         stroke="#000000"
         stroke-width="0.2"
         id="path48" /></g></g><g
     inkscape:groupmode="layer"
     id="layer4"
     inkscape:label="cut_holes"
     style="display:inline"><circle
       style="fill:none;stroke:#000000;stroke-width:0.0999997;stroke-linecap:round;stroke-linejoin:round;stroke-miterlimit:10;stroke-dasharray:none"
       id="path50"
       cx="73.25"
       cy="396.00412"
       r="11.2" /><circle
       style="fill:none;stroke:#000000;stroke-width:0.0999998;stroke-linecap:round;stroke-linejoin:round;stroke-miterlimit:10;stroke-dasharray:none"
       id="circle50"
       cx="73.25"
       cy="355.91254"
       r="8.1500006" /><circle
       style="fill:none;stroke:#000000;stroke-width:0.0999997;stroke-linecap:round;stroke-linejoin:round;stroke-miterlimit:10;stroke-dasharray:none"
       id="circle96"
       cx="486.23108"
       cy="152.45006"
       r="13.45" /><path
       sodipodi:type="star"
       style="fill:none;stroke:#000000;stroke-width:0.28651;stroke-linecap:round;stroke-linejoin:round;stroke-miterlimit:10;stroke-dasharray:none;stroke-opacity:1"
       id="path73"
       inkscape:flatsided="false"
       sodipodi:sides="5"
       sodipodi:cx="418.51736"
       sodipodi:cy="24.976337"
       sodipodi:r1="8.1313648"
       sodipodi:r2="4.1373844"
       sodipodi:arg1="-0.52359878"
       sodipodi:arg2="-0.022385683"
       inkscape:rounded="0"
       inkscape:randomized="0"
       d="m 425.55933,20.910655 -2.90562,3.973072 1.90644,5.533555 -4.67651,-1.535662 -4.6736,3.523089 0.0154,-4.922164 -4.79488,-3.356167 4.68601,-1.506401 1.71021,-5.597315 2.88073,3.991157 z"
       inkscape:transform-center-x="0.0013370624"
       inkscape:transform-center-y="-0.26966817"
       transform="matrix(0.34161456,0.07202723,-0.07207132,0.34140566,332.99782,11.377615)" /><path
       sodipodi:type="star"
       style="fill:none;stroke:#000000;stroke-width:0.28651;stroke-linecap:round;stroke-linejoin:round;stroke-miterlimit:10;stroke-dasharray:none;stroke-opacity:1"
       id="path74"
       inkscape:flatsided="false"
       sodipodi:sides="5"
       sodipodi:cx="418.51736"
       sodipodi:cy="24.976337"
       sodipodi:r1="8.1313648"
       sodipodi:r2="4.1373844"
       sodipodi:arg1="-0.52359878"
       sodipodi:arg2="-0.022385683"
       inkscape:rounded="0"
       inkscape:randomized="0"
       d="m 425.55933,20.910655 -2.90562,3.973072 1.90644,5.533555 -4.67651,-1.535662 -4.6736,3.523089 0.0154,-4.922164 -4.79488,-3.356167 4.68601,-1.506401 1.71021,-5.597315 2.88073,3.991157 z"
       inkscape:transform-center-x="0.0013370624"
       inkscape:transform-center-y="-0.26966817"
       transform="matrix(0.34161456,0.07202723,-0.07207132,0.34140566,342.15486,15.170582)" /><path
       sodipodi:type="star"
       style="fill:none;stroke:#000000;stroke-width:0.28651;stroke-linecap:round;stroke-linejoin:round;stroke-miterlimit:10;stroke-dasharray:none;stroke-opacity:1"
       id="path75"
       inkscape:flatsided="false"
       sodipodi:sides="5"
       sodipodi:cx="418.51736"
       sodipodi:cy="24.976337"
       sodipodi:r1="8.1313648"
       sodipodi:r2="4.1373844"
       sodipodi:arg1="-0.52359878"
       sodipodi:arg2="-0.022385683"
       inkscape:rounded="0"
       inkscape:randomized="0"
       d="m 425.55933,20.910655 -2.90562,3.973072 1.90644,5.533555 -4.67651,-1.535662 -4.6736,3.523089 0.0154,-4.922164 -4.79488,-3.356167 4.68601,-1.506401 1.71021,-5.597315 2.88073,3.991157 z"
       inkscape:transform-center-x="0.0013370624"
       inkscape:transform-center-y="-0.26966817"
       transform="matrix(0.34161456,0.07202723,-0.07207132,0.34140566,345.94783,24.327613)" /><path
       sodipodi:type="star"
       style="fill:none;stroke:#000000;stroke-width:0.28651;stroke-linecap:round;stroke-linejoin:round;stroke-miterlimit:10;stroke-dasharray:none;stroke-opacity:1"
       id="path76"
       inkscape:flatsided="false"
       sodipodi:sides="5"
       sodipodi:cx="418.51736"
       sodipodi:cy="24.976337"
       sodipodi:r1="8.1313648"
       sodipodi:r2="4.1373844"
       sodipodi:arg1="-0.52359878"
       sodipodi:arg2="-0.022385683"
       inkscape:rounded="0"
       inkscape:randomized="0"
       d="m 425.55933,20.910655 -2.90562,3.973072 1.90644,5.533555 -4.67651,-1.535662 -4.6736,3.523089 0.0154,-4.922164 -4.79488,-3.356167 4.68601,-1.506401 1.71021,-5.597315 2.88073,3.991157 z"
       inkscape:transform-center-x="0.0013370624"
       inkscape:transform-center-y="-0.26966817"
       transform="matrix(0.34161456,0.07202723,-0.07207132,0.34140566,342.15485,33.484628)" /><path
       sodipodi:type="star"
       style="fill:none;stroke:#000000;stroke-width:0.28651;stroke-linecap:round;stroke-linejoin:round;stroke-miterlimit:10;stroke-dasharray:none;stroke-opacity:1"
       id="path77"
       inkscape:flatsided="false"
       sodipodi:sides="5"
       sodipodi:cx="418.51736"
       sodipodi:cy="24.976337"
       sodipodi:r1="8.1313648"
       sodipodi:r2="4.1373844"
       sodipodi:arg1="-0.52359878"
       sodipodi:arg2="-0.022385683"
       inkscape:rounded="0"
       inkscape:randomized="0"
       d="m 425.55933,20.910655 -2.90562,3.973072 1.90644,5.533555 -4.67651,-1.535662 -4.6736,3.523089 0.0154,-4.922164 -4.79488,-3.356167 4.68601,-1.506401 1.71021,-5.597315 2.88073,3.991157 z"
       inkscape:transform-center-x="0.0013370624"
       inkscape:transform-center-y="-0.26966817"
       transform="matrix(0.34161456,0.07202723,-0.07207132,0.34140566,332.99782,37.277614)" /><path
       sodipodi:type="star"
       style="fill:none;stroke:#000000;stroke-width:0.28651;stroke-linecap:round;stroke-linejoin:round;stroke-miterlimit:10;stroke-dasharray:none;stroke-opacity:1"
       id="path78"
       inkscape:flatsided="false"
       sodipodi:sides="5"
       sodipodi:cx="418.51736"
       sodipodi:cy="24.976337"
       sodipodi:r1="8.1313648"
       sodipodi:r2="4.1373844"
       sodipodi:arg1="-0.52359878"
       sodipodi:arg2="-0.022385683"
       inkscape:rounded="0"
       inkscape:randomized="0"
       d="m 425.55933,20.910655 -2.90562,3.973072 1.90644,5.533555 -4.67651,-1.535662 -4.6736,3.523089 0.0154,-4.922164 -4.79488,-3.356167 4.68601,-1.506401 1.71021,-5.597315 2.88073,3.991157 z"
       inkscape:transform-center-x="0.0013370624"
       inkscape:transform-center-y="-0.26966817"
       transform="matrix(0.34161456,0.07202723,-0.07207132,0.34140566,323.84077,33.48463)" /><path
       sodipodi:type="star"
       style="fill:none;stroke:#000000;stroke-width:0.28651;stroke-linecap:round;stroke-linejoin:round;stroke-miterlimit:10;stroke-dasharray:none;stroke-opacity:1"
       id="path79"
       inkscape:flatsided="false"
       sodipodi:sides="5"
       sodipodi:cx="418.51736"
       sodipodi:cy="24.976337"
       sodipodi:r1="8.1313648"
       sodipodi:r2="4.1373844"
       sodipodi:arg1="-0.52359878"
       sodipodi:arg2="-0.022385683"
       inkscape:rounded="0"
       inkscape:randomized="0"
       d="m 425.55933,20.910655 -2.90562,3.973072 1.90644,5.533555 -4.67651,-1.535662 -4.6736,3.523089 0.0154,-4.922164 -4.79488,-3.356167 4.68601,-1.506401 1.71021,-5.597315 2.88073,3.991157 z"
       inkscape:transform-center-x="0.0013370624"
       inkscape:transform-center-y="-0.26966817"
       transform="matrix(0.34161456,0.07202723,-0.07207132,0.34140566,320.04781,24.327613)" /><path
       sodipodi:type="star"
       style="fill:none;stroke:#000000;stroke-width:0.28651;stroke-linecap:round;stroke-linejoin:round;stroke-miterlimit:10;stroke-dasharray:none;stroke-opacity:1"
       id="path80"
       inkscape:flatsided="false"
       sodipodi:sides="5"
       sodipodi:cx="418.51736"
       sodipodi:cy="24.976337"
       sodipodi:r1="8.1313648"
       sodipodi:r2="4.1373844"
       sodipodi:arg1="-0.52359878"
       sodipodi:arg2="-0.022385683"
       inkscape:rounded="0"
       inkscape:randomized="0"
       d="m 425.55933,20.910655 -2.90562,3.973072 1.90644,5.533555 -4.67651,-1.535662 -4.6736,3.523089 0.0154,-4.922164 -4.79488,-3.356167 4.68601,-1.506401 1.71021,-5.597315 2.88073,3.991157 z"
       inkscape:transform-center-x="0.0013370624"
       inkscape:transform-center-y="-0.26966817"
       transform="matrix(0.34161456,0.07202723,-0.07207132,0.34140566,323.84078,15.170603)" /><path
       sodipodi:type="star"
       style="fill:none;stroke:#000000;stroke-width:0.28651;stroke-linecap:round;stroke-linejoin:round;stroke-miterlimit:10;stroke-dasharray:none;stroke-opacity:1"
       id="path81"
       inkscape:flatsided="false"
       sodipodi:sides="5"
       sodipodi:cx="418.51736"
       sodipodi:cy="24.976337"
       sodipodi:r1="8.1313648"
       sodipodi:r2="4.1373844"
       sodipodi:arg1="-0.52359878"
       sodipodi:arg2="-0.022385683"
       inkscape:rounded="0"
       inkscape:randomized="0"
       d="m 425.55933,20.910655 -2.90562,3.973072 1.90644,5.533555 -4.67651,-1.535662 -4.6736,3.523089 0.0154,-4.922164 -4.79488,-3.356167 4.68601,-1.506401 1.71021,-5.597315 2.88073,3.991157 z"
       inkscape:transform-center-x="0.0013370624"
       inkscape:transform-center-y="-0.26966817"
       transform="matrix(0.34161456,0.07202723,-0.07207132,0.34140566,332.99782,17.852306)" /><path
       sodipodi:type="star"
       style="fill:none;stroke:#000000;stroke-width:0.28651;stroke-linecap:round;stroke-linejoin:round;stroke-miterlimit:10;stroke-dasharray:none;stroke-opacity:1"
       id="path82"
       inkscape:flatsided="false"
       sodipodi:sides="5"
       sodipodi:cx="418.51736"
       sodipodi:cy="24.976337"
       sodipodi:r1="8.1313648"
       sodipodi:r2="4.1373844"
       sodipodi:arg1="-0.52359878"
       sodipodi:arg2="-0.022385683"
       inkscape:rounded="0"
       inkscape:randomized="0"
       d="m 425.55933,20.910655 -2.90562,3.973072 1.90644,5.533555 -4.67651,-1.535662 -4.6736,3.523089 0.0154,-4.922164 -4.79488,-3.356167 4.68601,-1.506401 1.71021,-5.597315 2.88073,3.991157 z"
       inkscape:transform-center-x="0.0013370624"
       inkscape:transform-center-y="-0.26966817"
       transform="matrix(0.34161456,0.07202723,-0.07207132,0.34140566,339.47249,24.3276)" /><path
       sodipodi:type="star"
       style="fill:none;stroke:#000000;stroke-width:0.28651;stroke-linecap:round;stroke-linejoin:round;stroke-miterlimit:10;stroke-dasharray:none;stroke-opacity:1"
       id="path83"
       inkscape:flatsided="false"
       sodipodi:sides="5"
       sodipodi:cx="418.51736"
       sodipodi:cy="24.976337"
       sodipodi:r1="8.1313648"
       sodipodi:r2="4.1373844"
       sodipodi:arg1="-0.52359878"
       sodipodi:arg2="-0.022385683"
       inkscape:rounded="0"
       inkscape:randomized="0"
       d="m 425.55933,20.910655 -2.90562,3.973072 1.90644,5.533555 -4.67651,-1.535662 -4.6736,3.523089 0.0154,-4.922164 -4.79488,-3.356167 4.68601,-1.506401 1.71021,-5.597315 2.88073,3.991157 z"
       inkscape:transform-center-x="0.0013370624"
       inkscape:transform-center-y="-0.26966817"
       transform="matrix(0.34161456,0.07202723,-0.07207132,0.34140566,326.5225,24.327611)" /><path
       sodipodi:type="star"
       style="fill:none;stroke:#000000;stroke-width:0.28651;stroke-linecap:round;stroke-linejoin:round;stroke-miterlimit:10;stroke-dasharray:none;stroke-opacity:1"
       id="path84"
       inkscape:flatsided="false"
       sodipodi:sides="5"
       sodipodi:cx="418.51736"
       sodipodi:cy="24.976337"
       sodipodi:r1="8.1313648"
       sodipodi:r2="4.1373844"
       sodipodi:arg1="-0.52359878"
       sodipodi:arg2="-0.022385683"
       inkscape:rounded="0"
       inkscape:randomized="0"
       d="m 425.55933,20.910655 -2.90562,3.973072 1.90644,5.533555 -4.67651,-1.535662 -4.6736,3.523089 0.0154,-4.922164 -4.79488,-3.356167 4.68601,-1.506401 1.71021,-5.597315 2.88073,3.991157 z"
       inkscape:transform-center-x="0.0013370624"
       inkscape:transform-center-y="-0.26966817"
       transform="matrix(0.34161456,0.07202723,-0.07207132,0.34140566,332.99782,30.802311)" /><path
       sodipodi:type="star"
       style="fill:none;stroke:#000000;stroke-width:0.28651;stroke-linecap:round;stroke-linejoin:round;stroke-miterlimit:10;stroke-dasharray:none;stroke-opacity:1"
       id="path85"
       inkscape:flatsided="false"
       sodipodi:sides="5"
       sodipodi:cx="418.51736"
       sodipodi:cy="24.976337"
       sodipodi:r1="8.1313648"
       sodipodi:r2="4.1373844"
       sodipodi:arg1="-0.52359878"
       sodipodi:arg2="-0.022385683"
       inkscape:rounded="0"
       inkscape:randomized="0"
       d="m 425.55933,20.910655 -2.90562,3.973072 1.90644,5.533555 -4.67651,-1.535662 -4.6736,3.523089 0.0154,-4.922164 -4.79488,-3.356167 4.68601,-1.506401 1.71021,-5.597315 2.88073,3.991157 z"
       inkscape:transform-center-x="0.0013370624"
       inkscape:transform-center-y="-0.26966817"
       transform="matrix(0.34161456,0.07202723,-0.07207132,0.34140566,332.99782,24.327605)" /><circle
       style="fill:none;stroke:#000000;stroke-width:0.0999997;stroke-linecap:round;stroke-linejoin:round;stroke-miterlimit:10;stroke-dasharray:none"
       id="circle97"
       cx="514.80609"
       cy="152.45006"
       r="13.45" /><circle
       style="fill:none;stroke:#000000;stroke-width:0.0999997;stroke-linecap:round;stroke-linejoin:round;stroke-miterlimit:10;stroke-dasharray:none"
       id="circle98"
       cx="543.38123"
       cy="152.45006"
       r="13.45" /><circle
       style="fill:none;stroke:#000000;stroke-width:0.0999997;stroke-linecap:round;stroke-linejoin:round;stroke-miterlimit:10;stroke-dasharray:none"
       id="circle99"
       cx="571.95636"
       cy="152.45006"
       r="13.45" /><circle
       style="fill:none;stroke:#000000;stroke-width:0.0999997;stroke-linecap:round;stroke-linejoin:round;stroke-miterlimit:10;stroke-dasharray:none"
       id="circle100"
       cx="571.95636"
       cy="181.02505"
       r="13.45" /><circle
       style="fill:none;stroke:#000000;stroke-width:0.0999997;stroke-linecap:round;stroke-linejoin:round;stroke-miterlimit:10;stroke-dasharray:none"
       id="circle101"
       cx="543.38123"
       cy="181.02505"
       r="13.45" /><circle
       style="fill:none;stroke:#000000;stroke-width:0.0999997;stroke-linecap:round;stroke-linejoin:round;stroke-miterlimit:10;stroke-dasharray:none"
       id="circle102"
       cx="514.80609"
       cy="181.02505"
       r="13.45" /><circle
       style="fill:none;stroke:#000000;stroke-width:0.0999997;stroke-linecap:round;stroke-linejoin:round;stroke-miterlimit:10;stroke-dasharray:none"
       id="circle103"
       cx="486.23108"
       cy="181.02505"
       r="13.45" /><circle
       style="fill:none;stroke:#000000;stroke-width:0.0999997;stroke-linecap:round;stroke-linejoin:round;stroke-miterlimit:10;stroke-dasharray:none"
       id="circle104"
       cx="486.23108"
       cy="209.60005"
       r="13.45" /><circle
       style="fill:none;stroke:#000000;stroke-width:0.0999997;stroke-linecap:round;stroke-linejoin:round;stroke-miterlimit:10;stroke-dasharray:none"
       id="circle105"
       cx="514.80609"
       cy="209.60005"
       r="13.45" /><circle
       style="fill:none;stroke:#000000;stroke-width:0.0999996;stroke-linecap:round;stroke-linejoin:round;stroke-miterlimit:10;stroke-dasharray:none"
       id="circle106"
       cx="51.78754"
       cy="183.24585"
       r="1.9500002" /><circle
       style="fill:none;stroke:#000000;stroke-width:0.0999996;stroke-linecap:round;stroke-linejoin:round;stroke-miterlimit:10;stroke-dasharray:none"
       id="circle107"
       cx="151.78746"
       cy="183.24583"
       r="1.9500002" /><circle
       style="fill:none;stroke:#000000;stroke-width:0.0999996;stroke-linecap:round;stroke-linejoin:round;stroke-miterlimit:10;stroke-dasharray:none"
       id="circle108"
       cx="51.78754"
       cy="273.24582"
       r="1.9500002" /><circle
       style="fill:none;stroke:#000000;stroke-width:0.0999996;stroke-linecap:round;stroke-linejoin:round;stroke-miterlimit:10;stroke-dasharray:none"
       id="circle109"
       cx="151.78746"
       cy="273.24582"
       r="1.9500002" /><circle
       style="fill:none;stroke:#000000;stroke-width:0.0999992;stroke-linecap:round;stroke-linejoin:round;stroke-miterlimit:10;stroke-dasharray:none"
       id="circle110"
       cx="109.19585"
       cy="341.94431"
       r="1.7000002" /><circle
       style="fill:none;stroke:#000000;stroke-width:0.0999992;stroke-linecap:round;stroke-linejoin:round;stroke-miterlimit:10;stroke-dasharray:none"
       id="circle111"
       cx="109.19585"
       cy="412.91849"
       r="1.7000002" /><g
       id="g113"
       transform="matrix(0,-1.1513341,1.1513976,0,-164.50555,663.16284)"
       style="stroke-width:0.868534"><path
         style="fill:none;stroke:#1a1a1a;stroke-width:0.0868534;stroke-linecap:round;stroke-linejoin:round;stroke-miterlimit:10;stroke-dasharray:none;stroke-opacity:1"
         d="m 466.23667,218.90544 h 35.88751"
         id="path111" /><path
         style="fill:none;stroke:#1a1a1a;stroke-width:0.0868534;stroke-linecap:round;stroke-linejoin:round;stroke-miterlimit:10;stroke-dasharray:none;stroke-opacity:1"
         d="m 466.23667,219.00544 17.94375,31.0795"
         id="path112" /><path
         style="fill:none;stroke:#1a1a1a;stroke-width:0.0868534;stroke-linecap:round;stroke-linejoin:round;stroke-miterlimit:10;stroke-dasharray:none;stroke-opacity:1"
         d="m 502.12418,219.00544 -17.94377,31.0795"
         id="path113" /></g><g
       id="g118"
       transform="matrix(-1.1513341,0,0,-1.1513976,713.74506,375.70661)"
       style="stroke-width:0.868534"><path
         style="fill:none;stroke:#1a1a1a;stroke-width:0.0868534;stroke-linecap:round;stroke-linejoin:round;stroke-miterlimit:10;stroke-dasharray:none;stroke-opacity:1"
         d="m 466.23667,218.90544 h 35.88751"
         id="path116" /><path
         style="fill:none;stroke:#1a1a1a;stroke-width:0.0868534;stroke-linecap:round;stroke-linejoin:round;stroke-miterlimit:10;stroke-dasharray:none;stroke-opacity:1"
         d="m 466.23667,219.00544 17.94375,31.0795"
         id="path117" /><path
         style="fill:none;stroke:#1a1a1a;stroke-width:0.0868534;stroke-linecap:round;stroke-linejoin:round;stroke-miterlimit:10;stroke-dasharray:none;stroke-opacity:1"
         d="m 502.12418,219.00544 -17.94377,31.0795"
         id="path118" /></g><g
       id="g121"
       transform="matrix(1.1513341,0,0,1.1513976,-510.17013,-164.28778)"
       style="stroke-width:0.868534"><path
         style="fill:none;stroke:#1a1a1a;stroke-width:0.0868534;stroke-linecap:round;stroke-linejoin:round;stroke-miterlimit:10;stroke-dasharray:none;stroke-opacity:1"
         d="m 466.23667,218.90544 h 35.88751"
         id="path119" /><path
         style="fill:none;stroke:#1a1a1a;stroke-width:0.0868534;stroke-linecap:round;stroke-linejoin:round;stroke-miterlimit:10;stroke-dasharray:none;stroke-opacity:1"
         d="m 466.23667,219.00544 17.94375,31.0795"
         id="path120" /><path
         style="fill:none;stroke:#1a1a1a;stroke-width:0.0868534;stroke-linecap:round;stroke-linejoin:round;stroke-miterlimit:10;stroke-dasharray:none;stroke-opacity:1"
         d="m 502.12418,219.00544 -17.94377,31.0795"
         id="path121" /></g></g><g
     inkscape:groupmode="layer"
     id="layer2"
     inkscape:label="engrave"
     style="display:inline"><g
       style="fill:#44aa00;stroke-width:5.03969;stroke:none"
       id="g96"
       transform="matrix(2.625,0,0,2.625,80.78751,28.703526)"><path
         d="M 1.24264,8.24264 8,15 14.7574,8.24264 C 15.553,7.44699 16,6.36786 16,5.24264 V 5.05234 C 16,2.8143 14.1857,1 11.9477,1 10.7166,1 9.55233,1.55959 8.78331,2.52086 L 8,3.5 7.21669,2.52086 C 6.44767,1.55959 5.28338,1 4.05234,1 1.8143,1 0,2.8143 0,5.05234 v 0.1903 c 0,1.12522 0.44699,2.20435 1.24264,3 z"
         fill="#000000"
         id="path1-2"
         style="fill:#44aa00;stroke-width:5.03969;stroke:none" /></g><path
       d="m 457.77385,108.80327 v 0 q 0.35719,-0.43656 0.97896,-0.46302 v 0 q 1.01865,-0.0397 1.51606,0.50271 0.49478,0.5424 0.52917,1.07156 0.0318,0.52917 -0.27252,0.56886 v 0 q -0.43656,0.0132 -0.56885,-0.11906 v 0 q -0.11907,0.0132 -0.30427,-0.17198 v 0 q -0.0794,-0.0397 -0.21167,-0.30427 v 0 l -0.14552,-0.33073 q -0.10584,-0.23813 -0.26459,-0.26459 v 0 q -0.19843,0.0794 -0.19843,0.39688 v 0 q 0.0529,0.62177 0.59531,1.19062 v 0 q 0,0 0.0212,0.0317 0.0185,0.0344 0.1905,0.21961 v 0 q 1.0451,1.15094 1.08479,1.85208 v 0 q 0,0.44979 -0.18521,0.59531 v 0 q -0.56885,0.67469 -1.48167,0.70115 -0.91281,0.0265 -1.50812,-0.56885 v 0 q -0.15875,-0.15875 -0.15875,-0.30428 v 0 q -0.0794,-0.25135 -0.0529,-0.33072 v 0 q -0.0397,-0.37042 0,-0.55563 v 0 q 0.0794,-0.42333 0.62177,-0.43656 v 0 q 0.19844,0 0.25136,0.23812 v 0 q 0.17198,0.67469 0.32543,0.88636 0.15082,0.21166 0.49477,0.19843 v 0 q 0.43657,-0.0265 0.41805,-0.48947 -0.0212,-0.46303 -0.4445,-0.8599 v 0 q -0.1323,-0.15875 -0.25665,-0.24606 -0.127,-0.0847 -0.16669,-0.12436 v 0 q -0.0132,-0.0397 -0.0661,-0.0794 v 0 q -0.26459,-0.21167 -0.6694,-0.70115 -0.40217,-0.48948 -0.42862,-0.91281 v 0 q -0.0529,-0.75406 0.35718,-1.19063 z m 6.4823,1.23032 v 0 q -0.0926,-0.52917 -0.51594,-0.48948 v 0 q -0.23813,0.0132 -0.41011,0.3175 v 0 q -0.23812,0.46302 -0.20373,1.19591 0.0317,0.73555 0.10319,1.05834 0.0741,0.32544 0.25929,0.56356 v 0 q 0.10584,0.18521 0.3175,0.17198 v 0 q 0.37042,0 0.5424,-0.62177 v 0 l 0.10583,-0.3175 q 0.0661,-0.0661 0.0265,-0.13229 v 0 q 0.13229,-0.33073 0.14552,-0.78052 v 0 q -0.13229,-0.0926 -0.15875,-0.17198 v 0 q -0.0794,-0.2249 -0.0794,-0.30427 v 0 q -0.0926,-0.0661 -0.10584,-0.25136 -0.0132,-0.18521 -0.0265,-0.23812 z m -2.42094,1.24354 v 0 l 0.0529,-0.67469 q 0.0926,-0.91281 0.55563,-1.56104 v 0 q 0.44979,-0.5424 1.27,-0.55563 v 0 h 0.0794 q 0.7673,0 1.11125,0.33073 v 0 q 0.37042,0.29105 0.54769,0.635 0.17992,0.34396 0.23284,0.50271 0.0529,0.15875 0.0661,0.46302 v 0 q 0.0265,0.56886 -0.2249,0.64823 v 0 q 0.1852,1.25677 -0.2249,1.99761 v 0 q -0.13229,0.30427 -0.38365,0.66145 v 0 q -0.1852,0.23813 -0.66145,0.26459 v 0 q -0.47625,0 -0.82815,-0.0529 -0.34925,-0.0529 -0.77258,-0.33867 -0.42334,-0.2831 -0.59532,-0.93133 v 0 q -0.1852,-0.62177 -0.22489,-1.38906 z m 8.17562,2.16958 v 0 l -0.0794,-0.22489 -0.14552,-0.88636 q -0.0661,-0.25135 -0.0661,-0.44979 v 0 l 0.0529,-0.58208 q 0,-0.14552 0.0132,-0.15875 v 0 q -0.15875,0 -0.47625,0.38364 v 0 q -0.0265,0.0397 -0.0794,0.13229 v 0 q -0.55562,0.88636 -0.66146,2.1299 v 0 q -0.10583,0.2249 -0.27781,0.2249 v 0 q -0.35719,-0.0794 -0.39687,-0.0794 v 0 l -0.0926,0.0132 h -0.17198 q -0.30427,-0.0265 -0.39688,-0.23812 v 0 q -0.0529,-0.0662 -0.0529,-0.34396 v 0 -0.18521 l -0.0397,-0.72761 v -1.08479 q 0,-0.18521 -0.0265,-0.46302 v 0 q -0.0265,-0.30427 -0.0132,-0.96044 0.0132,-0.65352 -0.0132,-0.70114 -0.0265,-0.045 -0.0265,-0.12436 0,-0.0794 0.0397,-0.15875 0.0397,-0.0794 0.35719,-0.17197 v 0 q 0.17198,-0.10584 0.29104,-0.10584 v 0 q 0.18521,0.0397 0.47625,0.15875 v 0 q 0.19844,0.0397 0.19844,0.38365 v 0 q 0.0265,0.56885 0.008,0.82021 -0.0212,0.25135 0.005,1.01864 v 0 q 0.97896,-1.87854 1.74625,-2.26219 v 0 q 0.0661,-0.0661 0.19844,-0.0661 0.13229,0 0.30427,0.13229 0.17198,0.13229 0.23812,0.17198 0.0661,0.0397 0.15346,0.13229 0.0847,0.0926 0.13759,0.11906 v 0 q 0.15875,0.26459 0.0661,1.24355 v 0 q -0.0132,0.14552 -0.0265,0.25664 -0.0132,0.11377 -0.0132,0.48419 0,0.37042 0.0132,0.51594 v 0 q 0.0397,0.46302 0.0397,0.54239 v 0 l 0.0661,0.50271 q 0.13229,0.30427 0.14022,0.46831 0.005,0.16669 0.23019,0.52388 v 0 q 0.0926,0.19844 -0.0794,0.3175 v 0 q -0.26458,0.13229 -0.2831,0.11377 -0.0212,-0.0212 -0.15346,0.0265 -0.13229,0.045 -0.47625,0.0185 v 0 q -0.17196,-0.0397 -0.34394,-0.21167 v 0 l -0.19844,-0.19844 q -0.10583,-0.15875 -0.14552,-0.34395 v 0 q -0.0662,-0.0662 -0.0397,-0.10584 z m 3.45282,-7.80521 h 0.0397 q 0.88635,0 1.24354,0.35719 v 0 q 0,0.2249 -0.30427,0.91281 v 0 q -0.0529,0.2249 -0.17198,0.35719 v 0 l -0.17198,0.17198 q -0.0661,0.0397 -0.13229,0.0397 v 0 q -0.47625,0.11906 -0.74084,-0.18521 v 0 q -0.0529,-0.0794 -0.12435,-0.11906 -0.0741,-0.0397 -0.11377,-0.23813 v 0 q -0.11906,-0.17198 -0.11906,-0.26458 v 0 q -0.0265,-0.82021 0.59531,-1.03188 z m -0.14553,3.12209 h 0.0794 q 0.1323,-0.0662 0.62178,0.13229 v 0 q 0.0529,0.0529 0.15875,0.10583 v 0 l 0.21166,0.17198 q 0.0529,0.0529 0.0529,0.17198 v 0 1.16417 q 0,0.26458 -0.0265,0.47625 v 0 0.0794 q -0.0397,0.5424 0.0662,2.4474 v 0 q 0.0397,0.37041 -0.17198,0.44979 v 0 q -0.22489,0 -0.29104,-0.0662 v 0 q -0.0529,-0.0264 -0.0926,-0.0264 v 0 h -0.0926 l -0.0794,0.0264 q -0.0397,0 -0.14552,-0.0608 -0.10583,-0.0582 -0.13758,-0.12435 -0.0344,-0.0662 -0.11377,-0.0794 v 0 q -0.14554,-0.0529 -0.15877,-0.19844 v 0 q -0.18521,-0.35718 -0.1905,-0.42333 -0.008,-0.0661 -0.0476,-0.14552 v 0 l -0.0661,-1.15094 q 0,-0.19844 0.0265,-0.30427 v 0 -0.3175 q 0.0132,-0.14552 0.0265,-0.5371 0.0132,-0.38894 0.0397,-0.62707 v 0 q -0.0265,-0.34395 -0.0265,-0.46302 0,-0.11906 0.0132,-0.17198 v 0 q -0.14552,-0.14552 0.0132,-0.39687 v 0 q 0.17198,-0.13229 0.33073,-0.13229 z m 5.46365,1.01864 v 0 l -0.0397,-0.0132 q 0.0265,0.0132 0.0397,0.0132 z m -1.60073,3.0824 -0.0661,0.30427 v 0.11906 q 0.30427,0.41011 0.3175,0.41011 v 0 q 0.0661,0 0.30427,-0.0794 v 0 q 0.0132,0 0.14023,-0.127 0.12435,-0.12435 0.17727,-0.16404 v 0 q 0.15875,-0.0926 0.21166,-0.11906 v 0 q 0,-0.10584 0.0926,-0.21961 0.0926,-0.11112 0.16669,-0.22225 0.0714,-0.11377 0.0979,-0.16668 v 0 q 0.0794,-0.10584 0.0529,-0.10584 v 0 q 0.0265,-0.0529 0.0794,-0.22489 v 0 l 0.13229,-0.30427 0.14552,-0.66146 q 0.0265,-0.0926 -0.0661,-0.58209 v 0 -0.11906 q -0.0265,-0.0397 -0.0265,-0.0794 v 0 -0.0132 l -0.0132,-0.13229 q 0,-0.0661 -0.0397,-0.2249 v 0 q -0.0264,-0.11906 -0.15875,-0.38365 v 0 h -0.14552 q -0.23812,0.11907 -0.35718,0.25136 v 0 q -0.14553,0.18521 -0.37042,0.66146 -0.2249,0.47625 -0.30427,0.85989 v 0 l -0.0794,0.3175 q -0.17198,0.35719 -0.2249,0.82021 v 0 z m 2.95011,-3.4925 v 0 q 0.26458,0.56885 0.26458,0.9525 v 0 q 0,0.76729 -0.13229,1.16417 v 0 q 0,0.14552 -0.0265,0.22489 v 0 q -0.11906,0.87313 -0.30427,1.29646 v 0 q -0.0661,0.0926 -0.14552,0.29104 v 0 q -0.0794,0.2249 -0.39688,0.51594 v 0 q 0,0.0397 -0.19844,0.24606 -0.19843,0.20373 -0.62177,0.33602 v 0 q -0.48948,0.15875 -0.635,0.15875 v 0 q -0.75406,0.11906 -1.09802,-0.22489 v 0 l -0.0132,0.0132 q -0.26458,0.46302 -0.635,0.27781 v 0 q -0.22489,-0.11906 -0.25664,-0.15875 -0.0344,-0.0397 -0.0476,-0.17198 v 0 q -0.0926,-0.23813 -0.0661,-0.55563 v 0 l 0.0661,-0.43656 q -0.0397,-0.22489 -0.0132,-0.39687 v 0 -0.0926 q 0.0265,-0.26458 0.0397,-1.01335 0.0132,-0.74613 0.0476,-0.91281 0.0317,-0.16405 0.0317,-0.30957 v 0 q 0.15875,-1.81239 0.17992,-1.93939 0.0185,-0.12436 0.0185,-0.85196 v 0 -0.72761 q 0,-0.21166 -0.005,-0.3175 -0.008,-0.10583 0.045,-0.14552 v 0 q -0.10584,-0.30427 -0.0397,-0.68791 v 0 -0.15875 q -0.0265,-0.25136 0.10583,-0.47625 v 0 q 0.0926,-0.11907 0.37042,-0.2249 0.27781,-0.10583 0.46302,-0.11906 v 0 h 0.0661 q 0.17198,0 0.30427,0.0926 v 0 q 0.15875,0.0661 0.15875,0.3175 v 0 q 0.0265,0.0794 0,0.17198 v 0 q 0.0132,0.0926 -0.12436,1.87061 -0.14023,1.78064 -0.14023,1.94468 0,0.16669 -0.005,0.21167 -0.008,0.0476 -0.008,0.0608 v 0 q 0.0661,-0.0265 0.0794,-0.0926 0.0132,-0.0661 0.0529,-0.0926 v 0 q 0.2249,-0.15875 0.2249,-0.2249 v 0 q 0,-0.0132 0.0662,-0.0661 0.0661,-0.0529 0.0794,-0.0529 v 0 q 0.0265,-0.0397 0.0926,-0.0529 v 0 l 0.23813,-0.11906 q 0.0132,-0.0794 0.38364,-0.0741 0.37042,0.008 0.44979,0.0609 v 0 q 0.13229,0.0661 0.17992,0.0847 0.045,0.0212 0.0926,0.0265 0.045,0.008 0.36248,0.11377 v 0 q 0.14552,0 0.14552,0.0397 v 0 q 0.0529,0.0265 0.0794,0.0265 v 0 q 0.2249,0.13229 0.2249,0.19844 z m 3.78354,0.66146 v 0 q -0.0926,-0.52917 -0.51594,-0.48948 v 0 q -0.23813,0.0132 -0.4101,0.3175 v 0 q -0.23813,0.46302 -0.20373,1.19591 0.0317,0.73555 0.10583,1.05834 0.0714,0.32544 0.25665,0.56356 v 0 q 0.10583,0.18521 0.3175,0.17198 v 0 q 0.37041,0 0.54239,-0.62177 v 0 l 0.10583,-0.3175 q 0.0661,-0.0661 0.0265,-0.13229 v 0 q 0.1323,-0.33073 0.14552,-0.78052 v 0 q -0.13229,-0.0926 -0.15875,-0.17198 v 0 q -0.0794,-0.2249 -0.0794,-0.30427 v 0 q -0.0926,-0.0661 -0.10583,-0.25136 -0.0132,-0.18521 -0.0265,-0.23812 z m -2.42094,1.24354 v 0 l 0.0529,-0.67469 q 0.0926,-0.91281 0.55562,-1.56104 v 0 q 0.4498,-0.5424 1.27,-0.55563 v 0 h 0.0794 q 0.7673,0 1.11125,0.33073 v 0 q 0.37042,0.29105 0.55034,0.635 0.17727,0.34396 0.23019,0.50271 0.0529,0.15875 0.0661,0.46302 v 0 q 0.0265,0.56886 -0.2249,0.64823 v 0 q 0.1852,1.25677 -0.22491,1.99761 v 0 q -0.13229,0.30427 -0.38364,0.66145 v 0 q -0.18521,0.23813 -0.66146,0.26459 v 0 q -0.47625,0 -0.8255,-0.0529 -0.3519,-0.0529 -0.77523,-0.33867 -0.42334,-0.2831 -0.59531,-0.93133 v 0 q -0.18521,-0.62177 -0.2249,-1.38906 z m 8.20208,1.03187 v 0 l 0.0529,0.26459 0.35719,0.64823 q 0,0.0265 0.0741,0.15875 0.0714,0.13229 0.10583,0.17198 0.0317,0.0397 0.0979,0.14552 v 0 q 0.0397,0.0529 0.17198,0.21166 v 0 q 0.26459,0.19844 0.0132,0.47625 v 0 q -0.44979,0.46302 -0.9525,0.0265 v 0 q -0.29104,-0.22489 -0.50271,-0.58208 v 0 q -0.0794,-0.10584 -0.27781,-0.42334 v 0 l -0.30427,-0.64822 -0.0926,-0.14553 q 0,-0.0132 -0.0265,-0.0873 -0.0265,-0.0714 -0.0397,-0.13758 v 0 q -0.0661,-0.0132 -0.10584,-0.10583 v 0 q -0.0661,0.0926 -0.44979,0.64029 -0.38364,0.55033 -0.42333,0.60325 v 0 q -0.0661,0.0794 -0.10584,0.15875 -0.0397,0.0794 -0.10583,0.19844 -0.0661,0.11906 -0.0979,0.16668 -0.0344,0.045 -0.10054,0.13229 -0.0661,0.0847 -0.11906,0.0979 -0.0529,0.0132 -0.13229,0.0265 v 0 q -0.14553,0.0265 -0.37042,-0.19844 v 0 q -0.11906,-0.15875 -0.11906,-0.48948 v 0 q 0.0265,-0.14552 0.0741,-0.25135 0.045,-0.10584 0.0714,-0.25136 v 0 q 0.26458,-0.74083 0.37835,-0.86783 0.11113,-0.12435 0.16404,-0.29104 0.0529,-0.16404 0.11906,-0.29634 v 0 q 0.17198,-0.29104 0.42334,-0.78052 v 0 l -0.27781,-0.70114 q -0.10583,-0.18521 -0.14552,-0.37042 -0.0397,-0.18521 -0.11906,-0.37042 v 0 q -0.18521,-0.4101 0.0661,-0.75406 v 0 q 0.15875,-0.15875 0.29104,-0.18521 0.13229,-0.0265 0.49742,-0.0132 0.36247,0.0132 0.66675,0.3175 v 0 q 0,0.0926 0.13229,0.3175 v 0 q 0.14552,0.51594 0.16668,0.55563 0.0185,0.0397 0.0185,0.0662 v 0 l 0.56886,-0.51594 q 0.0529,-0.0794 0.30427,-0.18521 v 0 l 0.13229,-0.0794 q 0.0794,-0.0661 0.58208,-0.11906 v 0 q 0.43657,0.11906 0.55563,0.23813 v 0 q 0,0.0132 0.10583,0.26458 v 0 q -0.0265,0.30427 -0.50271,0.48948 v 0 l -0.55562,0.42333 q -0.18521,0.11907 -0.34396,0.29104 v 0 l -0.46302,0.4498 q 0.11906,0.25135 0.3175,0.78052 v 0 q 0.0926,0.33073 0.2249,0.52916 z"
       fill="currentColor"
       style="fill:#44aa00;stroke-width:0.264583"
       data-darkreader-inline-fill=""
       id="path1-9" /></g><g
     inkscape:groupmode="layer"
     id="layer3"
     inkscape:label="annotations"
     style="display:none"><g
       id="p-0"
       style="fill:none;stroke-linecap:round;stroke-linejoin:round"
       transform="translate(-11.73259,210.81301)"><path
         d="m 10.1,303.6 h 100 v -10 h -100 z"
         stroke="#000000"
         stroke-width="0.2"
         id="path1" /><text
         dominant-baseline="hanging"
         font-size="6px"
         style="font-style:normal;font-weight:normal;font-family:sans-serif;fill:#ff0000"
         text-anchor="middle"
         transform="translate(60.1,295.6)"
         id="text1">100.0mm, burn:0.10mm</text></g><text
       dominant-baseline="hanging"
       font-size="4px"
       style="font-style:normal;font-weight:normal;font-family:sans-serif;fill:#ff0000;stroke-linecap:round;stroke-linejoin:round"
       text-anchor="middle"
       id="text2"
       x="101.78749"
       y="226.34579">Bottom</text><text
       dominant-baseline="hanging"
       font-size="4px"
       style="font-style:normal;font-weight:normal;font-family:sans-serif;fill:#ff0000;stroke-linecap:round;stroke-linejoin:round"
       text-anchor="middle"
       id="text3"
       x="103.90417"
       y="319.71997">Top Rim and Lid</text><text
       dominant-baseline="hanging"
       font-size="4px"
       style="font-style:normal;font-weight:normal;font-family:sans-serif;fill:#ff0000;stroke-linecap:round;stroke-linejoin:round"
       text-anchor="middle"
       id="text4"
       x="101.78749"
       y="74.887505">Upper Lid</text><text
       dominant-baseline="hanging"
       font-size="4px"
       style="font-style:normal;font-weight:normal;font-family:sans-serif;fill:#ff0000;stroke-linecap:round;stroke-linejoin:round"
       text-anchor="middle"
       id="text10"
       x="102.19952"
       y="376.47168">wall 1</text><text
       dominant-baseline="hanging"
       font-size="4px"
       style="font-style:normal;font-weight:normal;font-family:sans-serif;fill:#ff0000;stroke-linecap:round;stroke-linejoin:round"
       text-anchor="middle"
       id="text13"
       x="223.87195"
       y="64.887497">wall 2</text><text
       dominant-baseline="hanging"
       font-size="4px"
       style="font-style:normal;font-weight:normal;font-family:sans-serif;fill:#ff0000;stroke-linecap:round;stroke-linejoin:round"
       text-anchor="middle"
       id="text16"
       x="223.871"
       y="196.87495">wall 3</text><text
       dominant-baseline="hanging"
       font-size="4px"
       style="font-style:normal;font-weight:normal;font-family:sans-serif;fill:#ff0000;stroke-linecap:round;stroke-linejoin:round"
       text-anchor="middle"
       id="text19"
       x="223.87099"
       y="328.86255">wall 4</text><text
       dominant-baseline="hanging"
       font-size="4px"
       style="font-style:normal;font-weight:normal;font-family:sans-serif;fill:#ff0000;stroke-linecap:round;stroke-linejoin:round"
       text-anchor="middle"
       id="text22"
       x="365.38342"
       y="70.179161">wall 5</text><text
       dominant-baseline="hanging"
       font-size="4px"
       style="font-style:normal;font-weight:normal;font-family:sans-serif;fill:#ff0000;stroke-linecap:round;stroke-linejoin:round"
       text-anchor="middle"
       id="text25"
       x="407.27542"
       y="70.179161">wall 6</text><text
       dominant-baseline="hanging"
       font-size="4px"
       style="font-style:normal;font-weight:normal;font-family:sans-serif;fill:#ff0000;stroke-linecap:round;stroke-linejoin:round"
       text-anchor="middle"
       id="text32"
       x="474.16742"
       y="70.179161">wall 7</text><text
       dominant-baseline="hanging"
       font-size="4px"
       style="font-style:normal;font-weight:normal;font-family:sans-serif;fill:#ff0000;stroke-linecap:round;stroke-linejoin:round"
       text-anchor="middle"
       id="text35"
       x="541.06061"
       y="70.179161">wall 8</text><text
       dominant-baseline="hanging"
       font-size="4px"
       style="font-style:normal;font-weight:normal;font-family:sans-serif;fill:#ff0000;stroke-linecap:round;stroke-linejoin:round"
       text-anchor="middle"
       id="text38"
       x="582.95276"
       y="70.179161">wall 9</text><text
       dominant-baseline="hanging"
       font-size="4px"
       style="font-style:normal;font-weight:normal;font-family:sans-serif;fill:#ff0000;stroke-linecap:round;stroke-linejoin:round"
       text-anchor="middle"
       id="text41"
       x="366.68341"
       y="202.16663">wall 10</text><text
       dominant-baseline="hanging"
       font-size="4px"
       style="font-style:normal;font-weight:normal;font-family:sans-serif;fill:#ff0000;stroke-linecap:round;stroke-linejoin:round"
       text-anchor="middle"
       id="text44"
       x="408.57538"
       y="202.16663">wall 11</text><text
       dominant-baseline="hanging"
       font-size="4px"
       style="font-style:normal;font-weight:normal;font-family:sans-serif;fill:#ff0000;stroke-linecap:round;stroke-linejoin:round"
       text-anchor="middle"
       id="text47"
       x="450.46741"
       y="202.16663">wall 12</text><circle
       style="fill:none;stroke:#000000;stroke-width:0.1;stroke-linecap:round;stroke-linejoin:round;stroke-miterlimit:10;stroke-dasharray:none"
       id="circle57"
       cx="474.16788"
       cy="49.779663"
       r="2.45" /><circle
       style="fill:none;stroke:#ff2a2a;stroke-width:0.1;stroke-linecap:round;stroke-linejoin:round;stroke-miterlimit:10;stroke-dasharray:none"
       id="circle51"
       cx="474.16788"
       cy="62.72966"
       r="12.95" /><circle
       style="fill:none;stroke:#ff2a2a;stroke-width:0.1;stroke-linecap:round;stroke-linejoin:round;stroke-miterlimit:10;stroke-dasharray:none"
       id="circle59"
       cx="474.16788"
       cy="62.72966"
       r="12.95" /><circle
       style="fill:none;stroke:#ff2a2a;stroke-width:0.1;stroke-linecap:round;stroke-linejoin:round;stroke-miterlimit:10;stroke-dasharray:none"
       id="circle71"
       cx="474.16788"
       cy="62.72966"
       r="6.9499998" /><circle
       style="display:inline;fill:none;stroke:#c83737;stroke-width:0.1;stroke-linecap:round;stroke-linejoin:round;stroke-miterlimit:10;stroke-dasharray:none"
       id="circle52"
       cx="-290.93045"
       cy="-392.59433"
       r="2.45"
       transform="rotate(134.99996)" /><circle
       style="display:inline;fill:none;stroke:#c83737;stroke-width:0.1;stroke-linecap:round;stroke-linejoin:round;stroke-miterlimit:10;stroke-dasharray:none"
       id="circle53"
       cx="-474.16788"
       cy="-75.679657"
       r="2.45"
       transform="scale(-1)" /><circle
       style="display:inline;fill:none;stroke:#c83737;stroke-width:0.1;stroke-linecap:round;stroke-linejoin:round;stroke-miterlimit:10;stroke-dasharray:none"
       id="circle54"
       cx="-379.64365"
       cy="277.9812"
       r="2.45"
       transform="rotate(-134.99996)" /><circle
       style="display:inline;fill:none;stroke:#c83737;stroke-width:0.1;stroke-linecap:round;stroke-linejoin:round;stroke-miterlimit:10;stroke-dasharray:none"
       id="circle55"
       cx="-62.72966"
       cy="461.21786"
       r="2.45"
       transform="rotate(-90)" /><circle
       style="display:inline;fill:none;stroke:#c83737;stroke-width:0.1;stroke-linecap:round;stroke-linejoin:round;stroke-miterlimit:10;stroke-dasharray:none"
       id="circle56"
       cx="290.93039"
       cy="366.6944"
       r="2.45"
       transform="rotate(-45.000049)" /><circle
       style="display:inline;fill:none;stroke:#c83737;stroke-width:0.1;stroke-linecap:round;stroke-linejoin:round;stroke-miterlimit:10;stroke-dasharray:none"
       id="circle58"
       cx="379.64362"
       cy="-303.88135"
       r="2.45"
       transform="rotate(45.000049)" /><circle
       style="display:inline;fill:none;stroke:#c83737;stroke-width:0.1;stroke-linecap:round;stroke-linejoin:round;stroke-miterlimit:10;stroke-dasharray:none"
       id="circle72"
       cx="474.16788"
       cy="49.779663"
       r="2.45" /><circle
       style="display:inline;fill:none;stroke:#c83737;stroke-width:0.1;stroke-linecap:round;stroke-linejoin:round;stroke-miterlimit:10;stroke-dasharray:none"
       id="circle58-1"
       cx="375.06488"
       cy="-295.51007"
       r="2.45"
       transform="rotate(45.000049)" /><circle
       style="display:inline;fill:none;stroke:#c83737;stroke-width:0.1;stroke-linecap:round;stroke-linejoin:round;stroke-miterlimit:10;stroke-dasharray:none"
       id="circle58-0"
       cx="384.22189"
       cy="-295.50964"
       r="2.45"
       transform="rotate(45.000049)" /><circle
       style="display:inline;fill:none;stroke:#c83737;stroke-width:0.1;stroke-linecap:round;stroke-linejoin:round;stroke-miterlimit:10;stroke-dasharray:none"
       id="circle58-9"
       cx="375.06488"
       cy="-286.35257"
       r="2.45"
       transform="rotate(45.000049)" /><circle
       style="display:inline;fill:none;stroke:#c83737;stroke-width:0.1;stroke-linecap:round;stroke-linejoin:round;stroke-miterlimit:10;stroke-dasharray:none"
       id="circle58-7"
       cx="384.22192"
       cy="-286.353"
       r="2.45"
       transform="rotate(45.000049)" /><circle
       style="display:inline;fill:none;stroke:#c83737;stroke-width:0.1;stroke-linecap:round;stroke-linejoin:round;stroke-miterlimit:10;stroke-dasharray:none"
       id="circle73"
       cx="379.64362"
       cy="-290.93134"
       r="2.45"
       transform="rotate(45.000049)" /><circle
       style="display:inline;fill:none;stroke:#c83737;stroke-width:0.1;stroke-linecap:round;stroke-linejoin:round;stroke-miterlimit:10;stroke-dasharray:none"
       id="path51"
       cx="62.72966"
       cy="-487.11789"
       r="2.45"
       transform="rotate(90)" /><text
       xml:space="preserve"
       style="font-size:25.9486px;font-family:Sans;-inkscape-font-specification:Sans;text-align:start;writing-mode:lr-tb;direction:ltr;text-anchor:start;fill:#d40000;stroke:#1a1a1a;stroke-width:0.0999997;stroke-linecap:round;stroke-linejoin:round;stroke-miterlimit:10;stroke-dasharray:none;stroke-opacity:1"
       x="513.68719"
       y="263.21323"
       id="text96"
       transform="scale(0.98894693,1.0111766)"><tspan
         sodipodi:role="line"
         id="tspan96"
         style="fill:#d40000;stroke-width:0.0999997"
         x="513.68719"
         y="263.21323">3mm</tspan></text></g></svg>
