%TF.GenerationSoftware,KiCad,Pcbnew,9.0.4*%
%TF.CreationDate,2025-09-12T14:04:45+02:00*%
%TF.ProjectId,sonibox,736f6e69-626f-4782-9e6b-696361645f70,rev?*%
%TF.SameCoordinates,Original*%
%TF.FileFunction,Legend,Bot*%
%TF.FilePolarity,Positive*%
%FSLAX46Y46*%
G04 Gerber Fmt 4.6, Leading zero omitted, Abs format (unit mm)*
G04 Created by KiCad (PCBNEW 9.0.4) date 2025-09-12 14:04:45*
%MOMM*%
%LPD*%
G01*
G04 APERTURE LIST*
G04 Aperture macros list*
%AMRoundRect*
0 Rectangle with rounded corners*
0 $1 Rounding radius*
0 $2 $3 $4 $5 $6 $7 $8 $9 X,Y pos of 4 corners*
0 Add a 4 corners polygon primitive as box body*
4,1,4,$2,$3,$4,$5,$6,$7,$8,$9,$2,$3,0*
0 Add four circle primitives for the rounded corners*
1,1,$1+$1,$2,$3*
1,1,$1+$1,$4,$5*
1,1,$1+$1,$6,$7*
1,1,$1+$1,$8,$9*
0 Add four rect primitives between the rounded corners*
20,1,$1+$1,$2,$3,$4,$5,0*
20,1,$1+$1,$4,$5,$6,$7,0*
20,1,$1+$1,$6,$7,$8,$9,0*
20,1,$1+$1,$8,$9,$2,$3,0*%
%AMFreePoly0*
4,1,37,0.603843,0.796157,0.639018,0.796157,0.711114,0.766294,0.766294,0.711114,0.796157,0.639018,0.796157,0.603843,0.800000,0.600000,0.800000,-0.600000,0.796157,-0.603843,0.796157,-0.639018,0.766294,-0.711114,0.711114,-0.766294,0.639018,-0.796157,0.603843,-0.796157,0.600000,-0.800000,0.000000,-0.800000,0.000000,-0.796148,-0.078414,-0.796148,-0.232228,-0.765552,-0.377117,-0.705537,
-0.507515,-0.618408,-0.618408,-0.507515,-0.705537,-0.377117,-0.765552,-0.232228,-0.796148,-0.078414,-0.796148,0.078414,-0.765552,0.232228,-0.705537,0.377117,-0.618408,0.507515,-0.507515,0.618408,-0.377117,0.705537,-0.232228,0.765552,-0.078414,0.796148,0.000000,0.796148,0.000000,0.800000,0.600000,0.800000,0.603843,0.796157,0.603843,0.796157,$1*%
%AMFreePoly1*
4,1,37,0.000000,0.796148,0.078414,0.796148,0.232228,0.765552,0.377117,0.705537,0.507515,0.618408,0.618408,0.507515,0.705537,0.377117,0.765552,0.232228,0.796148,0.078414,0.796148,-0.078414,0.765552,-0.232228,0.705537,-0.377117,0.618408,-0.507515,0.507515,-0.618408,0.377117,-0.705537,0.232228,-0.765552,0.078414,-0.796148,0.000000,-0.796148,0.000000,-0.800000,-0.600000,-0.800000,
-0.603843,-0.796157,-0.639018,-0.796157,-0.711114,-0.766294,-0.766294,-0.711114,-0.796157,-0.639018,-0.796157,-0.603843,-0.800000,-0.600000,-0.800000,0.600000,-0.796157,0.603843,-0.796157,0.639018,-0.766294,0.711114,-0.711114,0.766294,-0.639018,0.796157,-0.603843,0.796157,-0.600000,0.800000,0.000000,0.800000,0.000000,0.796148,0.000000,0.796148,$1*%
G04 Aperture macros list end*
%ADD10C,0.508000*%
%ADD11C,3.200000*%
%ADD12C,1.600000*%
%ADD13C,3.000000*%
%ADD14C,1.574800*%
%ADD15RoundRect,0.102000X0.660400X-0.660400X0.660400X0.660400X-0.660400X0.660400X-0.660400X-0.660400X0*%
%ADD16C,1.524800*%
%ADD17RoundRect,0.102000X0.654000X-0.654000X0.654000X0.654000X-0.654000X0.654000X-0.654000X-0.654000X0*%
%ADD18C,1.512000*%
%ADD19C,2.200000*%
%ADD20C,1.850000*%
%ADD21RoundRect,0.200000X-0.600000X-0.600000X0.600000X-0.600000X0.600000X0.600000X-0.600000X0.600000X0*%
%ADD22FreePoly0,0.000000*%
%ADD23FreePoly1,0.000000*%
%ADD24RoundRect,0.249999X-0.850001X-0.850001X0.850001X-0.850001X0.850001X0.850001X-0.850001X0.850001X0*%
G04 APERTURE END LIST*
D10*
%TO.C,J5*%
X87131000Y-86897200D02*
G75*
G02*
X86369000Y-86897200I-381000J0D01*
G01*
X86369000Y-86897200D02*
G75*
G02*
X87131000Y-86897200I381000J0D01*
G01*
%TO.C,J7*%
X172631000Y-107897200D02*
G75*
G02*
X171869000Y-107897200I-381000J0D01*
G01*
X171869000Y-107897200D02*
G75*
G02*
X172631000Y-107897200I381000J0D01*
G01*
%TO.C,J2*%
X167631000Y-36857200D02*
G75*
G02*
X166869000Y-36857200I-381000J0D01*
G01*
X166869000Y-36857200D02*
G75*
G02*
X167631000Y-36857200I381000J0D01*
G01*
%TO.C,J3*%
X87131000Y-54857200D02*
G75*
G02*
X86369000Y-54857200I-381000J0D01*
G01*
X86369000Y-54857200D02*
G75*
G02*
X87131000Y-54857200I381000J0D01*
G01*
%TO.C,J6*%
X87131000Y-114397200D02*
G75*
G02*
X86369000Y-114397200I-381000J0D01*
G01*
X86369000Y-114397200D02*
G75*
G02*
X87131000Y-114397200I381000J0D01*
G01*
%TO.C,J4*%
X87131000Y-70897200D02*
G75*
G02*
X86369000Y-70897200I-381000J0D01*
G01*
X86369000Y-70897200D02*
G75*
G02*
X87131000Y-70897200I381000J0D01*
G01*
%TD*%
%LPC*%
D11*
%TO.C,H1*%
X85000000Y-30000000D03*
%TD*%
D12*
%TO.C,R6*%
X110080000Y-97831625D03*
X99920000Y-97831625D03*
%TD*%
D13*
%TO.C,H8*%
X146500000Y-128249125D03*
%TD*%
D12*
%TO.C,R1*%
X99920000Y-59700000D03*
X110080000Y-59700000D03*
%TD*%
D13*
%TO.C,H5*%
X113500000Y-32749125D03*
%TD*%
D14*
%TO.C,J5*%
X86750000Y-90250000D03*
X86750000Y-92790000D03*
X86750000Y-95330000D03*
X86750000Y-97870000D03*
%TD*%
%TO.C,J7*%
X172250000Y-111250000D03*
X172250000Y-113790000D03*
%TD*%
D13*
%TO.C,H7*%
X113500000Y-128249125D03*
%TD*%
D11*
%TO.C,H2*%
X175000000Y-30000000D03*
%TD*%
D15*
%TO.C,J1*%
X96500000Y-47370000D03*
D16*
X96500000Y-44830000D03*
X96500000Y-42290000D03*
X96500000Y-39750000D03*
X96500000Y-37210000D03*
X96500000Y-34670000D03*
X96500000Y-32130000D03*
X96500000Y-29590000D03*
%TD*%
D14*
%TO.C,J2*%
X167250000Y-40210000D03*
X167250000Y-42750000D03*
%TD*%
D13*
%TO.C,H6*%
X146500000Y-32749125D03*
%TD*%
D12*
%TO.C,R3*%
X99920000Y-75700000D03*
X110080000Y-75700000D03*
%TD*%
%TO.C,R2*%
X110080000Y-65750000D03*
X99920000Y-65750000D03*
%TD*%
D17*
%TO.C,U1*%
X159380000Y-99034000D03*
D18*
X161920000Y-99034000D03*
X164460000Y-99034000D03*
X167000000Y-99034000D03*
X169540000Y-99034000D03*
X172080000Y-99034000D03*
X174620000Y-99034000D03*
X177160000Y-99034000D03*
X177160000Y-81000000D03*
X174620000Y-81000000D03*
X172080000Y-81000000D03*
X169540000Y-81000000D03*
X167000000Y-81000000D03*
X164460000Y-81000000D03*
X161920000Y-81000000D03*
X159380000Y-81000000D03*
%TD*%
D14*
%TO.C,J3*%
X86750000Y-58210000D03*
X86750000Y-60750000D03*
X86750000Y-63290000D03*
X86750000Y-65830000D03*
%TD*%
%TO.C,J6*%
X86750000Y-117750000D03*
X86750000Y-120290000D03*
%TD*%
%TO.C,J4*%
X86750000Y-74250000D03*
X86750000Y-76790000D03*
X86750000Y-79330000D03*
X86750000Y-81870000D03*
%TD*%
D11*
%TO.C,H3*%
X85000000Y-130000000D03*
%TD*%
%TO.C,H4*%
X175000000Y-130000000D03*
%TD*%
D12*
%TO.C,R5*%
X99920000Y-91781625D03*
X110080000Y-91781625D03*
%TD*%
D19*
%TO.C,A1*%
X127275000Y-27060000D03*
D20*
X127575000Y-30090000D03*
X132425000Y-30090000D03*
D19*
X132725000Y-27060000D03*
D21*
X121110000Y-26930000D03*
D12*
X121110000Y-29470000D03*
D22*
X121110000Y-32010000D03*
D12*
X121110000Y-34550000D03*
X121110000Y-37090000D03*
X121110000Y-39630000D03*
X121110000Y-42170000D03*
D22*
X121110000Y-44710000D03*
D12*
X121110000Y-47250000D03*
X121110000Y-49790000D03*
X121110000Y-52330000D03*
X121110000Y-54870000D03*
D22*
X121110000Y-57410000D03*
D12*
X121110000Y-59950000D03*
X121110000Y-62490000D03*
X121110000Y-65030000D03*
X121110000Y-67570000D03*
D22*
X121110000Y-70110000D03*
D12*
X121110000Y-72650000D03*
X121110000Y-75190000D03*
X138890000Y-75190000D03*
X138890000Y-72650000D03*
D23*
X138890000Y-70110000D03*
D12*
X138890000Y-67570000D03*
X138890000Y-65030000D03*
X138890000Y-62490000D03*
X138890000Y-59950000D03*
D23*
X138890000Y-57410000D03*
D12*
X138890000Y-54870000D03*
X138890000Y-52330000D03*
X138890000Y-49790000D03*
X138890000Y-47250000D03*
D23*
X138890000Y-44710000D03*
D12*
X138890000Y-42170000D03*
X138890000Y-39630000D03*
X138890000Y-37090000D03*
X138890000Y-34550000D03*
D23*
X138890000Y-32010000D03*
D12*
X138890000Y-29470000D03*
X138890000Y-26930000D03*
%TD*%
D24*
%TO.C,D1*%
X157090000Y-29500000D03*
D19*
X167250000Y-29500000D03*
%TD*%
D12*
%TO.C,R4*%
X110080000Y-81750000D03*
X99920000Y-81750000D03*
%TD*%
%LPD*%
M02*
