M48
; DRILL file {KiCad 9.0.4} date 2025-09-12T14:04:45+0200
; FORMAT={-:-/ absolute / inch / decimal}
; #@! TF.CreationDate,2025-09-12T14:04:45+02:00
; #@! TF.GenerationSoftware,Kicad,Pcbnew,9.0.4
; #@! TF.FileFunction,Plated,1,2,PTH
FMAT,2
INCH
; #@! TA.AperFunction,Plated,PTH,ViaDrill
T1C0.0118
; #@! TA.AperFunction,Plated,PTH,ComponentDrill
T2C0.0315
; #@! TA.AperFunction,Plated,PTH,ComponentDrill
T3C0.0320
; #@! TA.AperFunction,Plated,PTH,ComponentDrill
T4C0.0394
; #@! TA.AperFunction,Plated,PTH,ComponentDrill
T5C0.0420
; #@! TA.AperFunction,Plated,PTH,ComponentDrill
T6C0.0433
%
G90
G05
T1
X3.8878Y-1.4272
X3.9272Y-1.5157
X4.2323Y-1.4173
X4.2323Y-1.5157
X4.5177Y-2.8445
X5.689Y-3.1398
X6.063Y-3.5039
T2
X3.9339Y-2.3504
X3.9339Y-2.5886
X3.9339Y-2.9803
X3.9339Y-3.2185
X3.9339Y-3.6134
X3.9339Y-3.8516
X4.3339Y-2.3504
X4.3339Y-2.5886
X4.3339Y-2.9803
X4.3339Y-3.2185
X4.3339Y-3.6134
X4.3339Y-3.8516
X6.2748Y-3.189
X6.2748Y-3.899
X6.3748Y-3.189
X6.3748Y-3.899
X6.4748Y-3.189
X6.4748Y-3.899
X6.5748Y-3.189
X6.5748Y-3.899
X6.6748Y-3.189
X6.6748Y-3.899
X6.7748Y-3.189
X6.7748Y-3.899
X6.8748Y-3.189
X6.8748Y-3.899
X6.9748Y-3.189
X6.9748Y-3.899
T3
X3.7992Y-1.165
X3.7992Y-1.265
X3.7992Y-1.365
X3.7992Y-1.465
X3.7992Y-1.565
X3.7992Y-1.665
X3.7992Y-1.765
X3.7992Y-1.865
T4
X4.7681Y-1.0602
X4.7681Y-1.1602
X4.7681Y-1.2602
X4.7681Y-1.3602
X4.7681Y-1.4602
X4.7681Y-1.5602
X4.7681Y-1.6602
X4.7681Y-1.7602
X4.7681Y-1.8602
X4.7681Y-1.9602
X4.7681Y-2.0602
X4.7681Y-2.1602
X4.7681Y-2.2602
X4.7681Y-2.3602
X4.7681Y-2.4602
X4.7681Y-2.5602
X4.7681Y-2.6602
X4.7681Y-2.7602
X4.7681Y-2.8602
X4.7681Y-2.9602
X5.4681Y-1.0602
X5.4681Y-1.1602
X5.4681Y-1.2602
X5.4681Y-1.3602
X5.4681Y-1.4602
X5.4681Y-1.5602
X5.4681Y-1.6602
X5.4681Y-1.7602
X5.4681Y-1.8602
X5.4681Y-1.9602
X5.4681Y-2.0602
X5.4681Y-2.1602
X5.4681Y-2.2602
X5.4681Y-2.3602
X5.4681Y-2.4602
X5.4681Y-2.5602
X5.4681Y-2.6602
X5.4681Y-2.7602
X5.4681Y-2.8602
X5.4681Y-2.9602
T5
X3.4154Y-2.2917
X3.4154Y-2.3917
X3.4154Y-2.4917
X3.4154Y-2.5917
X3.4154Y-2.9232
X3.4154Y-3.0232
X3.4154Y-3.1232
X3.4154Y-3.2232
X3.4154Y-3.5531
X3.4154Y-3.6531
X3.4154Y-3.7531
X3.4154Y-3.8531
X3.4154Y-4.6358
X3.4154Y-4.7358
X6.5846Y-1.5831
X6.5846Y-1.6831
X6.7815Y-4.3799
X6.7815Y-4.4799
T6
X6.1846Y-1.1614
X6.5846Y-1.1614
M30
